<?xml version="1.0" encoding="UTF-8"?>
<svg id="Layer_1" data-name="Layer 1" xmlns="http://www.w3.org/2000/svg" viewBox="0 0 1190.55 1683.78">
  <defs>
    <style>
      .cls-1 {
        fill: #040000;
        stroke-width: 0px;
      }
    </style>
  </defs>
  <g>
    <rect class="cls-1" x="325.03" y="47.21" width="4" height="278.88"/>
    <polygon class="cls-1" points="313.77 62.5 310.84 59.78 327.03 42.37 343.22 59.78 340.29 62.5 327.03 48.24 313.77 62.5"/>
  </g>
  <g>
    <polygon class="cls-1" points="79.43 319.92 75.87 318.08 216.8 44.39 220.57 45.31 220.57 210.99 216.57 210.99 216.57 53.56 79.43 319.92"/>
    <polygon class="cls-1" points="75.85 322.49 69.43 299.61 73.28 298.52 78.54 317.27 96.85 310.66 98.21 314.43 75.85 322.49"/>
  </g>
  <g>
    <rect class="cls-1" x="111.31" y="203.24" width="253.55" height="4" transform="translate(-52.88 324.18) rotate(-63)"/>
    <polygon class="cls-1" points="178.48 322.22 171.96 299.37 175.8 298.27 181.14 316.99 199.43 310.31 200.8 314.06 178.48 322.22"/>
  </g>
  <g>
    <rect class="cls-1" x="1128.88" y="47.21" width="4" height="276.99"/>
    <polygon class="cls-1" points="1117.63 62.5 1114.7 59.78 1130.89 42.37 1147.07 59.78 1144.14 62.5 1130.89 48.24 1117.63 62.5"/>
  </g>
  <g>
    <rect class="cls-1" x="559.32" y="142.28" width="4" height="182.06"/>
    <polygon class="cls-1" points="548.06 157.57 545.13 154.84 561.32 137.43 577.51 154.84 574.58 157.57 561.32 143.31 548.06 157.57"/>
  </g>
  <g>
    <path class="cls-1" d="M503.32,320.47h-4v-111.76c0-40.36-16.48-59.19-51.87-59.25h-.18c-21.86,0-37.71,7.06-47.18,12.98-10.3,6.46-15.48,13.02-15.53,13.08l-3.16-2.45c.88-1.13,21.93-27.61,65.86-27.61h.2c37.59.07,55.87,20.76,55.87,63.25v111.76Z"/>
    <polygon class="cls-1" points="501.32 326.31 485.14 308.9 488.07 306.18 501.32 320.43 514.58 306.18 517.51 308.9 501.32 326.31"/>
  </g>
  <g>
    <path class="cls-1" d="M425.84,323.28c-9.65,0-20.27-1.87-29.9-6.92-10.75-5.64-18.25-14.5-21.69-25.63-4.22-13.66-2.88-27.59,3.87-40.29,7.85-14.77,22.62-26.35,40.52-31.77,24.44-7.41,51.1-3.3,61.43-1.2l-.8,3.92c-10.03-2.05-35.91-6.03-59.47,1.11-16.89,5.12-30.8,15.99-38.15,29.82-6.24,11.74-7.48,24.62-3.58,37.24,3.16,10.23,9.8,18.06,19.72,23.27,15.3,8.03,34.82,7.64,47.38,3.68,24.47-7.7,39.09-33.93,39.24-34.19l3.51,1.92c-.62,1.14-15.52,27.9-41.54,36.08-5.54,1.74-12.72,2.96-20.54,2.96Z"/>
    <polygon class="cls-1" points="465.31 233.56 463.16 230.19 479.59 219.74 467.98 204.12 471.19 201.73 485.37 220.81 465.31 233.56"/>
  </g>
  <g>
    <path class="cls-1" d="M1062.59,321.47h-4v-112.76c0-40.36-16.48-59.19-51.87-59.25h-.18c-21.86,0-37.71,7.06-47.18,12.98-10.3,6.46-15.48,13.02-15.53,13.08l-3.16-2.45c.88-1.13,21.93-27.61,65.86-27.61h.2c37.59.07,55.87,20.76,55.87,63.25v112.76Z"/>
    <polygon class="cls-1" points="1060.58 326.31 1044.4 308.9 1047.33 306.18 1060.58 320.43 1073.84 306.18 1076.77 308.9 1060.58 326.31"/>
  </g>
  <g>
    <path class="cls-1" d="M985.1,323.28c-9.65,0-20.27-1.87-29.9-6.92-10.75-5.64-18.25-14.5-21.69-25.63-4.22-13.66-2.88-27.59,3.87-40.29,7.85-14.77,22.62-26.35,40.52-31.77,24.44-7.41,51.1-3.31,61.43-1.2l-.8,3.92c-10.03-2.05-35.91-6.04-59.47,1.11-16.89,5.12-30.8,15.99-38.15,29.82-6.24,11.74-7.48,24.62-3.58,37.24,3.16,10.23,9.8,18.06,19.72,23.27,15.3,8.03,34.82,7.64,47.38,3.68,24.47-7.7,39.09-33.93,39.24-34.19l3.51,1.92c-.62,1.14-15.52,27.9-41.54,36.08-5.54,1.74-12.72,2.96-20.54,2.96Z"/>
    <polygon class="cls-1" points="1024.57 233.56 1022.42 230.19 1038.85 219.74 1027.24 204.12 1030.45 201.73 1044.63 220.81 1024.57 233.56"/>
  </g>
  <g>
    <path class="cls-1" d="M700.17,322.43h-4v-89.15c0-26.66,0-76.3-47.7-83.11-47.44-6.79-68.66,37.3-68.86,37.75l-3.62-1.7c.23-.48,5.68-11.97,17.39-22.71,10.86-9.97,29.33-21.06,55.66-17.3,51.13,7.3,51.13,61.18,51.13,87.07v89.15Z"/>
    <polygon class="cls-1" points="698.16 327.27 681.98 309.86 684.91 307.14 698.16 321.4 711.42 307.14 714.35 309.86 698.16 327.27"/>
  </g>
  <g>
    <rect class="cls-1" x="878.32" y="146.56" width="4" height="177.78"/>
    <polygon class="cls-1" points="893.58 160.85 880.32 146.59 867.06 160.85 864.13 158.12 880.32 140.72 896.51 158.12 893.58 160.85"/>
  </g>
  <g>
    <path class="cls-1" d="M803,323.27c-3.32,0-6.79-.24-10.39-.75-51.14-7.24-51.14-60.66-51.14-86.33v-90.26h4v90.26c0,26.43,0,75.62,47.7,82.37,40.14,5.68,61.5-24.71,67.09-34.16l3.44,2.04c-5.41,9.14-24.79,36.83-60.7,36.83Z"/>
    <polygon class="cls-1" points="864.77 304.63 861.27 285.47 842.42 290.36 841.42 286.49 864.43 280.52 868.71 303.91 864.77 304.63"/>
  </g>
</svg>