<?xml version="1.0" encoding="utf-8"?>
<!-- Generator: Adobe Illustrator 28.2.0, SVG Export Plug-In . SVG Version: 6.00 Build 0)  -->
<svg version="1.1" id="Layer_1" xmlns="http://www.w3.org/2000/svg" xmlns:xlink="http://www.w3.org/1999/xlink" x="0px" y="0px"
	 viewBox="0 0 1190.6 1683.8" style="enable-background:new 0 0 1190.6 1683.8;" xml:space="preserve">
<style type="text/css">
	.st0{fill:#040000;}
</style>
<g>
	<g>
		<rect x="294.2" y="49" class="st0" width="4" height="278.9"/>
		<polygon class="st0" points="282.9,64.3 280,61.6 296.2,44.2 312.4,61.6 309.5,64.3 296.2,50.1 		"/>
	</g>
	<g>
		<polygon class="st0" points="48.6,321.8 45,319.9 186,46.2 189.7,47.1 189.7,212.8 185.7,212.8 185.7,55.4 		"/>
		<polygon class="st0" points="45,324.3 38.6,301.4 42.4,300.4 47.7,319.1 66,312.5 67.4,316.3 		"/>
	</g>
	<g>
		<rect x="80.5" y="205.1" transform="matrix(0.454 -0.891 0.891 0.454 -71.3302 297.7031)" class="st0" width="253.5" height="4"/>
		<polygon class="st0" points="147.6,324.1 141.1,301.2 145,300.1 150.3,318.8 168.6,312.1 170,315.9 		"/>
	</g>
	<g>
		<rect x="1098" y="49" class="st0" width="4" height="277"/>
		<polygon class="st0" points="1086.8,64.3 1083.9,61.6 1100.1,44.2 1116.2,61.6 1113.3,64.3 1100.1,50.1 		"/>
	</g>
	<g>
		<rect x="528.5" y="144.1" class="st0" width="4" height="182.1"/>
		<polygon class="st0" points="517.2,159.4 514.3,156.7 530.5,139.3 546.7,156.7 543.7,159.4 530.5,145.1 		"/>
	</g>
	<g>
		<path class="st0" d="M472.5,322.3h-4V210.5c0-40.4-16.5-59.2-51.9-59.2h-0.2c-21.9,0-37.7,7.1-47.2,13
			c-10.3,6.5-15.5,13-15.5,13.1l-3.2-2.4c0.9-1.1,21.9-27.6,65.9-27.6h0.2c37.6,0.1,55.9,20.8,55.9,63.2L472.5,322.3L472.5,322.3z"
			/>
		<polygon class="st0" points="470.5,328.1 454.3,310.7 457.2,308 470.5,322.3 483.7,308 486.7,310.7 		"/>
	</g>
	<g>
		<path class="st0" d="M395,325.1c-9.6,0-20.3-1.9-29.9-6.9c-10.8-5.6-18.2-14.5-21.7-25.6c-4.2-13.7-2.9-27.6,3.9-40.3
			c7.9-14.8,22.6-26.4,40.5-31.8c24.4-7.4,51.1-3.3,61.4-1.2l-0.8,3.9c-10-2.1-35.9-6-59.5,1.1c-16.9,5.1-30.8,16-38.1,29.8
			c-6.2,11.7-7.5,24.6-3.6,37.2c3.2,10.2,9.8,18.1,19.7,23.3c15.3,8,34.8,7.6,47.4,3.7c24.5-7.7,39.1-33.9,39.2-34.2l3.5,1.9
			c-0.6,1.1-15.5,27.9-41.5,36.1C410,323.9,402.8,325.1,395,325.1L395,325.1z"/>
		<polygon class="st0" points="434.5,235.4 432.3,232 448.8,221.6 437.1,205.9 440.4,203.6 454.5,222.6 		"/>
	</g>
	<g>
		<path class="st0" d="M1031.8,323.3h-4V210.5c0-40.4-16.5-59.2-51.9-59.2h-0.2c-21.9,0-37.7,7.1-47.2,13
			c-10.3,6.5-15.5,13-15.5,13.1l-3.2-2.4c0.9-1.1,21.9-27.6,65.9-27.6h0.2c37.6,0.1,55.9,20.8,55.9,63.2L1031.8,323.3L1031.8,323.3z
			"/>
		<polygon class="st0" points="1029.7,328.1 1013.6,310.7 1016.5,308 1029.7,322.3 1043,308 1045.9,310.7 		"/>
	</g>
	<g>
		<path class="st0" d="M954.3,325.1c-9.7,0-20.3-1.9-29.9-6.9c-10.8-5.6-18.2-14.5-21.7-25.6c-4.2-13.7-2.9-27.6,3.9-40.3
			c7.8-14.8,22.6-26.4,40.5-31.8c24.4-7.4,51.1-3.3,61.4-1.2l-0.8,3.9c-10-2.1-35.9-6-59.5,1.1c-16.9,5.1-30.8,16-38.2,29.8
			c-6.2,11.7-7.5,24.6-3.6,37.2c3.2,10.2,9.8,18.1,19.7,23.3c15.3,8,34.8,7.6,47.4,3.7c24.5-7.7,39.1-33.9,39.2-34.2l3.5,1.9
			c-0.6,1.1-15.5,27.9-41.5,36.1C969.3,323.9,962.1,325.1,954.3,325.1L954.3,325.1z"/>
		<polygon class="st0" points="993.7,235.4 991.6,232 1008,221.6 996.4,205.9 999.6,203.6 1013.8,222.6 		"/>
	</g>
	<g>
		<path class="st0" d="M669.3,324.3h-4v-89.2c0-26.7,0-76.3-47.7-83.1c-47.4-6.8-68.7,37.3-68.9,37.8l-3.6-1.7
			c0.2-0.5,5.7-12,17.4-22.7c10.9-10,29.3-21.1,55.7-17.3c51.1,7.3,51.1,61.2,51.1,87.1V324.3z"/>
		<polygon class="st0" points="667.3,329.1 651.1,311.7 654.1,309 667.3,323.2 680.6,309 683.5,311.7 		"/>
	</g>
	<g>
		<rect x="847.5" y="148.4" class="st0" width="4" height="177.8"/>
		<polygon class="st0" points="862.7,162.7 849.5,148.4 836.2,162.7 833.3,159.9 849.5,142.6 865.7,159.9 		"/>
	</g>
	<g>
		<path class="st0" d="M772.2,325.1c-3.3,0-6.8-0.2-10.4-0.8c-51.1-7.2-51.1-60.7-51.1-86.3v-90.3h4V238c0,26.4,0,75.6,47.7,82.4
			c40.1,5.7,61.5-24.7,67.1-34.2l3.4,2C827.5,297.4,808.1,325.1,772.2,325.1L772.2,325.1z"/>
		<polygon class="st0" points="833.9,306.5 830.4,287.3 811.6,292.2 810.6,288.3 833.6,282.4 837.9,305.7 		"/>
	</g>
</g>
</svg>
