<?xml version="1.0" encoding="UTF-8"?>
<svg id="Layer_1" data-name="Layer 1" xmlns="http://www.w3.org/2000/svg" viewBox="0 0 1190.55 1683.78">
  <defs>
    <style>
      .cls-1 {
        fill: #fff;
        stroke-width: 0px;
      }
    </style>
  </defs>
  <g>
    <rect class="cls-1" x="861.02" y="1359.12" width="4" height="278.88"/>
    <polygon class="cls-1" points="863.02 1642.85 846.84 1625.44 849.76 1622.71 863.02 1636.97 876.28 1622.71 879.21 1625.44 863.02 1642.85"/>
  </g>
  <g>
    <polygon class="cls-1" points="973.26 1640.82 969.48 1639.91 969.48 1474.23 973.48 1474.23 973.48 1631.65 1110.63 1365.3 1114.18 1367.13 973.26 1640.82"/>
    <polygon class="cls-1" points="1116.77 1386.69 1111.52 1367.95 1093.2 1374.55 1091.84 1370.79 1114.21 1362.72 1120.63 1385.61 1116.77 1386.69"/>
  </g>
  <g>
    <rect class="cls-1" x="825.19" y="1477.97" width="253.55" height="4" transform="translate(-798.89 1656.2) rotate(-63)"/>
    <polygon class="cls-1" points="1014.25 1386.94 1008.91 1368.22 990.62 1374.91 989.25 1371.15 1011.58 1362.99 1018.1 1385.85 1014.25 1386.94"/>
  </g>
  <g>
    <rect class="cls-1" x="57.17" y="1361.02" width="4" height="276.99"/>
    <polygon class="cls-1" points="59.17 1642.85 42.98 1625.44 45.91 1622.71 59.17 1636.97 72.43 1622.71 75.36 1625.44 59.17 1642.85"/>
  </g>
  <g>
    <rect class="cls-1" x="626.73" y="1360.88" width="4" height="182.06"/>
    <polygon class="cls-1" points="628.73 1547.78 612.55 1530.37 615.48 1527.65 628.73 1541.9 641.99 1527.65 644.92 1530.37 628.73 1547.78"/>
  </g>
  <g>
    <path class="cls-1" d="M742.79,1539.75h-.2c-37.59-.07-55.87-20.76-55.87-63.25v-111.76h4v111.76c0,40.36,16.48,59.19,51.87,59.25h.18c21.86,0,37.71-7.06,47.18-12.98,10.3-6.46,15.48-13.02,15.53-13.08l3.16,2.45c-.88,1.13-21.93,27.61-65.86,27.61Z"/>
    <polygon class="cls-1" points="675.47 1379.04 672.54 1376.31 688.73 1358.9 704.92 1376.31 701.99 1379.04 688.73 1364.78 675.47 1379.04"/>
  </g>
  <g>
    <path class="cls-1" d="M740.09,1470.8c-13.05,0-24.23-1.85-30.11-3.05l.8-3.92c10.03,2.05,35.9,6.04,59.47-1.11,16.89-5.12,30.8-15.99,38.15-29.82,6.24-11.74,7.48-24.62,3.58-37.24-3.16-10.23-9.8-18.06-19.72-23.27-15.3-8.03-34.82-7.64-47.38-3.68-24.47,7.7-39.09,33.93-39.24,34.19l-3.51-1.92c.62-1.13,15.52-27.9,41.54-36.08,12.37-3.89,33.01-5.19,50.44,3.96,10.75,5.64,18.25,14.5,21.69,25.63,4.22,13.66,2.88,27.59-3.87,40.29-7.85,14.77-22.62,26.35-40.52,31.77-10.52,3.19-21.46,4.25-31.32,4.25Z"/>
    <polygon class="cls-1" points="718.87 1483.48 704.69 1464.4 724.75 1451.65 726.89 1455.02 710.46 1465.47 722.08 1481.1 718.87 1483.48"/>
  </g>
  <g>
    <path class="cls-1" d="M183.53,1539.75h-.2c-37.59-.07-55.87-20.76-55.87-63.25v-112.76h4v112.76c0,40.36,16.48,59.19,51.87,59.25h.18c21.86,0,37.71-7.06,47.18-12.98,10.3-6.46,15.48-13.02,15.53-13.08l3.16,2.45c-.88,1.13-21.93,27.61-65.86,27.61Z"/>
    <polygon class="cls-1" points="116.21 1379.04 113.28 1376.31 129.47 1358.9 145.65 1376.31 142.72 1379.04 129.47 1364.78 116.21 1379.04"/>
  </g>
  <g>
    <path class="cls-1" d="M180.83,1470.8c-13.05,0-24.23-1.85-30.11-3.05l.8-3.92c10.03,2.05,35.9,6.04,59.47-1.11,16.89-5.12,30.8-15.99,38.15-29.82,6.24-11.74,7.48-24.62,3.58-37.23-3.16-10.23-9.8-18.06-19.72-23.27-15.3-8.03-34.83-7.64-47.38-3.68-24.47,7.7-39.09,33.93-39.24,34.19l-3.51-1.92c.62-1.14,15.52-27.9,41.54-36.09,12.37-3.89,33.01-5.19,50.44,3.96,10.75,5.64,18.25,14.5,21.69,25.63,4.22,13.66,2.88,27.59-3.87,40.29-7.85,14.77-22.62,26.35-40.52,31.77-10.52,3.19-21.46,4.25-31.32,4.25Z"/>
    <polygon class="cls-1" points="159.6 1483.48 145.42 1464.4 165.48 1451.65 167.63 1455.02 151.2 1465.47 162.81 1481.1 159.6 1483.48"/>
  </g>
  <g>
    <path class="cls-1" d="M551.37,1539.74c-3.3,0-6.75-.24-10.35-.75-51.13-7.3-51.13-61.18-51.13-87.07v-89.15h4v89.15c0,26.66,0,76.3,47.7,83.11,47.43,6.77,68.65-37.3,68.86-37.75l3.62,1.7c-.23.48-5.68,11.97-17.39,22.71-9.38,8.6-24.43,18.05-45.31,18.05Z"/>
    <polygon class="cls-1" points="478.63 1378.07 475.7 1375.35 491.89 1357.94 508.07 1375.35 505.14 1378.07 491.89 1363.81 478.63 1378.07"/>
  </g>
  <g>
    <rect class="cls-1" x="307.73" y="1360.88" width="4" height="177.78"/>
    <polygon class="cls-1" points="309.73 1544.5 293.55 1527.09 296.48 1524.36 309.73 1538.62 322.99 1524.36 325.92 1527.09 309.73 1544.5"/>
  </g>
  <g>
    <path class="cls-1" d="M448.58,1539.28h-4v-90.26c0-26.43,0-75.62-47.7-82.37-40.14-5.69-61.5,24.71-67.09,34.16l-3.44-2.04c5.91-9.99,28.49-42.11,71.09-36.08,51.14,7.24,51.14,60.66,51.14,86.33v90.26Z"/>
    <polygon class="cls-1" points="325.63 1404.69 321.35 1381.31 325.28 1380.59 328.79 1399.74 347.63 1394.85 348.64 1398.72 325.63 1404.69"/>
  </g>
</svg>