<?xml version="1.0" encoding="utf-8"?>
<!-- Generator: Adobe Illustrator 28.2.0, SVG Export Plug-In . SVG Version: 6.00 Build 0)  -->
<svg version="1.1" id="Layer_1" xmlns="http://www.w3.org/2000/svg" xmlns:xlink="http://www.w3.org/1999/xlink" x="0px" y="0px"
	 viewBox="0 0 1190.6 1683.8" style="enable-background:new 0 0 1190.6 1683.8;" xml:space="preserve">
<style type="text/css">
	.st0{fill:#FFFFFF;}
</style>
<g>
	<g>
		<rect x="891.8" y="1357.3" class="st0" width="4" height="278.9"/>
		<polygon class="st0" points="893.8,1641 877.6,1623.6 880.5,1620.9 893.8,1635.1 907,1620.9 910,1623.6 		"/>
	</g>
	<g>
		<polygon class="st0" points="1004,1639 1000.2,1638.1 1000.2,1472.4 1004.2,1472.4 1004.2,1629.8 1141.4,1363.5 1144.9,1365.3 		
			"/>
		<polygon class="st0" points="1147.5,1384.9 1142.3,1366.1 1123.9,1372.7 1122.6,1369 1145,1360.9 1151.4,1383.8 		"/>
	</g>
	<g>
		
			<rect x="855.9" y="1476.1" transform="matrix(0.454 -0.891 0.891 0.454 -780.3884 1682.6224)" class="st0" width="253.5" height="4"/>
		<polygon class="st0" points="1045,1385.1 1039.7,1366.4 1021.4,1373.1 1020,1369.3 1042.3,1361.2 1048.8,1384 		"/>
	</g>
	<g>
		<rect x="87.9" y="1359.2" class="st0" width="4" height="277"/>
		<polygon class="st0" points="89.9,1641 73.7,1623.6 76.7,1620.9 89.9,1635.1 103.2,1620.9 106.1,1623.6 		"/>
	</g>
	<g>
		<rect x="657.5" y="1359" class="st0" width="4" height="182.1"/>
		<polygon class="st0" points="659.5,1545.9 643.3,1528.5 646.2,1525.8 659.5,1540.1 672.7,1525.8 675.7,1528.5 		"/>
	</g>
	<g>
		<path class="st0" d="M773.5,1537.9h-0.2c-37.6-0.1-55.9-20.8-55.9-63.2v-111.8h4v111.8c0,40.4,16.5,59.2,51.9,59.2h0.2
			c21.9,0,37.7-7.1,47.2-13c10.3-6.5,15.5-13,15.5-13.1l3.2,2.4C838.5,1511.4,817.5,1537.9,773.5,1537.9L773.5,1537.9z"/>
		<polygon class="st0" points="706.2,1377.2 703.3,1374.5 719.5,1357.1 735.7,1374.5 732.7,1377.2 719.5,1362.9 		"/>
	</g>
	<g>
		<path class="st0" d="M770.8,1469c-13,0-24.2-1.8-30.1-3.1l0.8-3.9c10,2.1,35.9,6,59.5-1.1c16.9-5.1,30.8-16,38.2-29.8
			c6.2-11.7,7.5-24.6,3.6-37.2c-3.2-10.2-9.8-18.1-19.7-23.3c-15.3-8-34.8-7.6-47.4-3.7c-24.5,7.7-39.1,33.9-39.2,34.2l-3.5-1.9
			c0.6-1.1,15.5-27.9,41.5-36.1c12.4-3.9,33-5.2,50.4,4c10.8,5.6,18.2,14.5,21.7,25.6c4.2,13.7,2.9,27.6-3.9,40.3
			c-7.8,14.8-22.6,26.3-40.5,31.8C791.6,1467.9,780.7,1469,770.8,1469L770.8,1469z"/>
		<polygon class="st0" points="749.6,1481.6 735.4,1462.6 755.5,1449.8 757.6,1453.2 741.2,1463.6 752.8,1479.3 		"/>
	</g>
	<g>
		<path class="st0" d="M214.3,1537.9h-0.2c-37.6-0.1-55.9-20.8-55.9-63.2v-112.8h4v112.8c0,40.4,16.5,59.2,51.9,59.2h0.2
			c21.9,0,37.7-7.1,47.2-13c10.3-6.5,15.5-13,15.5-13.1l3.2,2.4C279.2,1511.4,258.2,1537.9,214.3,1537.9L214.3,1537.9z"/>
		<polygon class="st0" points="147,1377.2 144,1374.5 160.2,1357.1 176.4,1374.5 173.5,1377.2 160.2,1362.9 		"/>
	</g>
	<g>
		<path class="st0" d="M211.6,1469c-13.1,0-24.2-1.8-30.1-3.1l0.8-3.9c10,2.1,35.9,6,59.5-1.1c16.9-5.1,30.8-16,38.2-29.8
			c6.2-11.7,7.5-24.6,3.6-37.2c-3.2-10.2-9.8-18.1-19.7-23.3c-15.3-8-34.8-7.6-47.4-3.7c-24.5,7.7-39.1,33.9-39.2,34.2l-3.5-1.9
			c0.6-1.1,15.5-27.9,41.5-36.1c12.4-3.9,33-5.2,50.4,4c10.8,5.6,18.2,14.5,21.7,25.6c4.2,13.7,2.9,27.6-3.9,40.3
			c-7.9,14.8-22.6,26.3-40.5,31.8C232.4,1467.9,221.4,1469,211.6,1469L211.6,1469z"/>
		<polygon class="st0" points="190.3,1481.6 176.2,1462.6 196.2,1449.8 198.4,1453.2 181.9,1463.6 193.6,1479.3 		"/>
	</g>
	<g>
		<path class="st0" d="M582.1,1537.9c-3.3,0-6.8-0.2-10.3-0.8c-51.1-7.3-51.1-61.2-51.1-87.1v-89.2h4v89.2c0,26.7,0,76.3,47.7,83.1
			c47.4,6.8,68.7-37.3,68.9-37.8l3.6,1.7c-0.2,0.5-5.7,12-17.4,22.7C618,1528.5,603,1537.9,582.1,1537.9z"/>
		<polygon class="st0" points="509.4,1376.2 506.4,1373.5 522.6,1356.1 538.8,1373.5 535.9,1376.2 522.6,1362 		"/>
	</g>
	<g>
		<rect x="338.5" y="1359" class="st0" width="4" height="177.8"/>
		<polygon class="st0" points="340.5,1542.7 324.3,1525.3 327.2,1522.5 340.5,1536.8 353.7,1522.5 356.7,1525.3 		"/>
	</g>
	<g>
		<path class="st0" d="M479.3,1537.4h-4v-90.3c0-26.4,0-75.6-47.7-82.4c-40.1-5.7-61.5,24.7-67.1,34.2l-3.4-2
			c5.9-10,28.5-42.1,71.1-36.1c51.1,7.2,51.1,60.7,51.1,86.3L479.3,1537.4L479.3,1537.4z"/>
		<polygon class="st0" points="356.4,1402.9 352.1,1379.5 356,1378.8 359.5,1397.9 378.4,1393 379.4,1396.9 		"/>
	</g>
</g>
</svg>
