<?xml version="1.0" encoding="UTF-8"?>
<svg id="_레이어_4" data-name="레이어 4" xmlns="http://www.w3.org/2000/svg" viewBox="0 0 638.68 898.06">
  <defs>
    <style>
      .cls-1 {
        fill: #fff;
        stroke-width: 0px;
      }
    </style>
  </defs>
  <path class="cls-1" d="M299.71,126.9c.28,0,.56-.06.84-.19,1-.46,1.44-1.64.98-2.65-.46-1-1.65-1.45-2.65-.99-1,.47-1.45,1.65-.99,2.66.34.73,1.06,1.17,1.82,1.17Z"/>
  <path class="cls-1" d="M518.22,164.11c-.79.77-.8,2.04-.03,2.83.4.4.91.6,1.43.6s1.01-.19,1.4-.58c.79-.77.8-2.04.03-2.82-.78-.79-2.04-.8-2.83-.03Z"/>
  <path class="cls-1" d="M313.47,121.23c.23,0,.46-.04.69-.13,1.03-.38,1.57-1.53,1.18-2.57-.38-1.03-1.53-1.56-2.57-1.18-1.03.38-1.56,1.53-1.18,2.57.3.8,1.06,1.31,1.88,1.31Z"/>
  <path class="cls-1" d="M528.35,175.02c-.84.71-.96,1.97-.24,2.82.39.47.96.71,1.53.71.45,0,.91-.15,1.28-.47.85-.71.96-1.97.25-2.82-.71-.84-1.98-.95-2.82-.24Z"/>
  <path class="cls-1" d="M288.17,130.63c-.53-.97-1.75-1.32-2.72-.79h0c-.97.54-1.32,1.76-.78,2.73.36.65,1.04,1.03,1.75,1.03.33,0,.66-.08.96-.25.97-.53,1.32-1.75.79-2.72Z"/>
  <path class="cls-1" d="M540.64,413.57c.34.23.73.34,1.12.34.64,0,1.27-.3,1.65-.87.63-.92.39-2.16-.52-2.78-.92-.62-2.16-.38-2.79.53-.62.92-.38,2.16.54,2.78Z"/>
  <path class="cls-1" d="M547.91,398.3c-.55.96-.21,2.18.74,2.73.32.18.66.26.99.26.7,0,1.37-.36,1.74-1.01.55-.95.22-2.18-.74-2.72-.96-.55-2.18-.22-2.73.74Z"/>
  <path class="cls-1" d="M507.28,154.01c-.73.84-.64,2.1.19,2.83h0c.38.33.85.49,1.32.49.55,0,1.11-.23,1.5-.69.73-.83.64-2.09-.19-2.82-.83-.72-2.09-.64-2.82.19Z"/>
  <path class="cls-1" d="M545.95,199.01c-.94.57-1.24,1.81-.66,2.75.37.62,1.03.96,1.71.96.35,0,.71-.1,1.04-.3.94-.57,1.24-1.8.66-2.74-.57-.95-1.8-1.25-2.75-.67Z"/>
  <path class="cls-1" d="M573.64,331.3c.98,0,1.83-.72,1.98-1.72.15-1.09-.61-2.1-1.7-2.26-1.1-.16-2.11.61-2.26,1.7-.16,1.1.6,2.11,1.7,2.26.09.02.19.02.28.02Z"/>
  <path class="cls-1" d="M577.15,314.64c.07-1.1-.77-2.06-1.87-2.13-1.1-.07-2.05.77-2.12,1.87-.07,1.1.76,2.05,1.87,2.12.04.01.08.01.13.01,1.04,0,1.92-.81,1.99-1.87Z"/>
  <path class="cls-1" d="M220.6,192.86c.64,0,1.26-.3,1.65-.86.63-.91.4-2.16-.5-2.78-.91-.63-2.16-.41-2.79.5-.63.9-.4,2.15.5,2.78.35.24.75.36,1.14.36Z"/>
  <path class="cls-1" d="M211.57,205.13c.32.19.67.28,1.01.28.69,0,1.36-.35,1.73-.99.56-.95.24-2.18-.71-2.74-.95-.56-2.18-.24-2.74.72-.56.95-.24,2.17.71,2.73Z"/>
  <path class="cls-1" d="M240.79,166.35c-.8-.76-2.07-.73-2.83.07-.76.8-.73,2.06.07,2.83.39.36.88.55,1.38.55.53,0,1.06-.21,1.45-.62h0c.77-.8.74-2.07-.06-2.83Z"/>
  <path class="cls-1" d="M273.67,141.26c.37,0,.76-.1,1.09-.33.92-.6,1.18-1.84.58-2.76-.61-.93-1.84-1.19-2.77-.58-.92.6-1.18,1.84-.58,2.77.39.58,1.03.9,1.68.9Z"/>
  <path class="cls-1" d="M537.61,186.68c-.89.64-1.1,1.89-.45,2.78.39.55,1,.84,1.62.84.41,0,.82-.12,1.17-.38.89-.64,1.1-1.89.45-2.79-.64-.89-1.89-1.1-2.79-.45Z"/>
  <path class="cls-1" d="M248.74,155.93c-.82.74-.89,2-.14,2.82.39.44.94.67,1.48.67.48,0,.96-.17,1.34-.52.82-.74.89-2,.15-2.82-.74-.82-2-.89-2.83-.15Z"/>
  <path class="cls-1" d="M444.13,120.09c.22.08.44.11.66.11.83,0,1.61-.52,1.89-1.34.37-1.04-.19-2.19-1.23-2.55s-2.18.19-2.55,1.23c-.36,1.05.19,2.19,1.23,2.55Z"/>
  <path class="cls-1" d="M472.05,132.09c.72,0,1.41-.38,1.77-1.06.52-.97.15-2.19-.83-2.7-.97-.52-2.18-.15-2.7.83-.52.97-.15,2.19.83,2.7.3.16.62.23.93.23Z"/>
  <path class="cls-1" d="M532.93,425.9c.58,0,1.16-.26,1.56-.75.69-.87.55-2.12-.32-2.82-.86-.68-2.12-.54-2.81.32-.68.86-.55,2.12.32,2.81.37.3.81.44,1.25.44Z"/>
  <path class="cls-1" d="M327.61,116.63c.19,0,.37-.02.55-.08,1.06-.3,1.68-1.4,1.38-2.46-.3-1.07-1.41-1.69-2.47-1.39h0c-1.06.31-1.68,1.41-1.38,2.48.25.88,1.05,1.45,1.92,1.45Z"/>
  <path class="cls-1" d="M415.68,112.53c.12.02.25.03.37.03.94,0,1.78-.67,1.96-1.63.2-1.09-.51-2.14-1.6-2.34-1.08-.2-2.13.52-2.33,1.6-.2,1.09.51,2.14,1.6,2.34Z"/>
  <path class="cls-1" d="M457.85,125.46c.26.12.53.17.8.17.77,0,1.51-.45,1.83-1.2.45-1.01-.02-2.19-1.03-2.63-1.01-.44-2.19.02-2.63,1.03-.44,1.01.02,2.19,1.03,2.63Z"/>
  <path class="cls-1" d="M356.76,110.73c.09,0,.17,0,.25-.02,1.1-.13,1.88-1.13,1.74-2.22-.13-1.1-1.13-1.88-2.23-1.74-1.1.13-1.88,1.13-1.74,2.22.12,1.02.99,1.76,1.98,1.76Z"/>
  <path class="cls-1" d="M569.38,253.49c-1.08.26-1.73,1.35-1.46,2.42.22.91,1.04,1.52,1.94,1.52.16,0,.32-.02.48-.06,1.07-.26,1.72-1.35,1.46-2.42-.27-1.07-1.35-1.73-2.42-1.46Z"/>
  <path class="cls-1" d="M430.05,115.76c.17.05.35.07.52.07.88,0,1.69-.59,1.93-1.49.28-1.06-.36-2.16-1.42-2.44-1.07-.29-2.17.35-2.45,1.42-.28,1.06.35,2.16,1.42,2.44Z"/>
  <path class="cls-1" d="M401.11,110.39c.07,0,.14,0,.21,0,1.01,0,1.88-.76,1.99-1.78.12-1.1-.68-2.09-1.77-2.21-1.1-.11-2.08.68-2.21,1.78-.12,1.1.68,2.08,1.78,2.2Z"/>
  <path class="cls-1" d="M513.99,447.14c.81-.74.86-2.01.12-2.82-.75-.81-2.02-.87-2.83-.12s-.87,2.01-.12,2.83c.4.43.93.64,1.47.64.49,0,.97-.17,1.36-.53Z"/>
  <path class="cls-1" d="M483.86,139.24c.33.21.7.31,1.07.31.66,0,1.31-.33,1.69-.93.6-.93.32-2.17-.62-2.76-.93-.59-2.17-.31-2.76.62-.59.94-.31,2.17.62,2.76Z"/>
  <path class="cls-1" d="M500.06,453.74c-.87.68-1.02,1.94-.34,2.81.39.5.98.76,1.57.76.44,0,.87-.14,1.24-.43.87-.68,1.02-1.94.33-2.8-.68-.87-1.93-1.02-2.8-.34Z"/>
  <path class="cls-1" d="M524.66,436.53c.76-.8.71-2.07-.1-2.82-.8-.75-2.07-.71-2.82.1-.75.8-.71,2.07.1,2.82.38.36.87.54,1.36.54.54,0,1.07-.21,1.46-.64Z"/>
  <path class="cls-1" d="M341.68,109.15c-1.08.22-1.78,1.28-1.56,2.36.19.95,1.02,1.61,1.96,1.61.13,0,.26-.02.39-.04h0c1.08-.22,1.79-1.28,1.57-2.36-.22-1.08-1.28-1.79-2.36-1.57Z"/>
  <path class="cls-1" d="M386.41,109.38h.07c1.07,0,1.96-.85,2-1.93.03-1.11-.84-2.03-1.94-2.07-1.1-.03-2.03.84-2.06,1.94-.04,1.1.83,2.03,1.93,2.06Z"/>
  <path class="cls-1" d="M371.6,109.48h.09c1.1-.05,1.95-.99,1.9-2.09-.05-1.1-.98-1.96-2.08-1.91-1.11.05-1.96.99-1.91,2.09.05,1.08.93,1.91,2,1.91Z"/>
  <path class="cls-1" d="M571.43,341.99c-1.08-.24-2.15.45-2.39,1.53h.01c-.24,1.08.44,2.14,1.52,2.38.14.03.29.05.43.05.92,0,1.75-.64,1.95-1.58h0c.24-1.07-.44-2.14-1.52-2.38Z"/>
  <path class="cls-1" d="M572.55,268.03c-1.09.18-1.82,1.21-1.64,2.3.16.98,1.01,1.67,1.97,1.67.11,0,.22-.01.33-.03,1.09-.18,1.83-1.21,1.65-2.3-.19-1.09-1.22-1.83-2.31-1.64Z"/>
  <path class="cls-1" d="M559.73,225.36c-1.01.42-1.49,1.59-1.07,2.61.32.77,1.06,1.23,1.85,1.23.25,0,.52-.05.77-.15,1.02-.43,1.5-1.6,1.07-2.62-.43-1.02-1.6-1.5-2.62-1.07Z"/>
  <path class="cls-1" d="M565.09,239.24c-1.05.35-1.61,1.48-1.27,2.52.28.84,1.06,1.38,1.9,1.38.21,0,.42-.04.63-.11,1.05-.34,1.62-1.47,1.27-2.52-.35-1.05-1.48-1.62-2.53-1.27Z"/>
  <path class="cls-1" d="M565.34,357.78c-.32,1.05.28,2.17,1.34,2.49.19.05.39.08.58.08.86,0,1.65-.56,1.91-1.42.32-1.06-.28-2.17-1.34-2.49-1.06-.32-2.17.28-2.49,1.34Z"/>
  <path class="cls-1" d="M560.56,371.72c-.39,1.03.12,2.19,1.15,2.59.24.09.48.13.72.13.8,0,1.56-.49,1.87-1.28.39-1.03-.12-2.19-1.15-2.59-1.03-.4-2.19.12-2.59,1.15Z"/>
  <path class="cls-1" d="M573.53,299.65h0c.01,1.09.9,1.97,1.99,1.97h.03c1.11-.01,1.99-.92,1.97-2.02,0-1.11-.91-1.99-2.02-1.98-1.1.02-1.99.92-1.98,2.03Z"/>
  <path class="cls-1" d="M557.41,384.3c-1-.48-2.19-.05-2.67.94-.47,1-.05,2.19.95,2.67.28.13.57.19.86.19.75,0,1.46-.42,1.81-1.14.47-1,.05-2.19-.95-2.66Z"/>
  <path class="cls-1" d="M553.34,211.93c-.99.5-1.37,1.7-.87,2.69.35.69,1.05,1.09,1.78,1.09.3,0,.62-.07.91-.22.98-.5,1.37-1.7.87-2.69-.5-.98-1.71-1.37-2.69-.87Z"/>
  <path class="cls-1" d="M206.43,214.72c-1-.49-2.19-.08-2.68.92-.49.99-.07,2.19.92,2.67.28.14.58.2.88.2.74,0,1.45-.41,1.8-1.12h-.01c.49-.99.08-2.19-.91-2.67Z"/>
  <path class="cls-1" d="M192.65,243.56c-.33,1.05.26,2.18,1.31,2.5.2.06.4.09.6.09.85,0,1.64-.54,1.91-1.4.32-1.05-.26-2.17-1.32-2.5-1.05-.33-2.17.25-2.5,1.31Z"/>
  <path class="cls-1" d="M190.21,260.47c.15.03.3.05.45.05.92,0,1.74-.63,1.95-1.55.25-1.08-.42-2.15-1.5-2.4-1.07-.25-2.15.43-2.4,1.5-.24,1.08.43,2.15,1.5,2.4Z"/>
  <path class="cls-1" d="M200.26,228.27c-1.02-.41-2.19.09-2.59,1.12-.41,1.02.09,2.19,1.12,2.6.24.09.49.14.73.14.8,0,1.55-.48,1.86-1.26.41-1.03-.09-2.19-1.12-2.6Z"/>
  <path class="cls-1" d="M574.96,286.76c1.1-.1,1.91-1.07,1.81-2.17-.1-1.1-1.07-1.91-2.17-1.81-1.1.1-1.91,1.07-1.81,2.17.09,1.04.96,1.82,1.99,1.82.06,0,.12,0,.18,0Z"/>
  <polygon class="cls-1" points="187.18 276.71 200.33 266.64 197.89 263.46 188.16 270.92 181.43 260.67 178.09 262.87 187.18 276.71"/>
  <path class="cls-1" d="M502.49,468.82l.58-3.96-12.11-1.79s-.01-.02-.02-.03l2.66-11.94-3.9-.87-3.6,16.17,16.39,2.42Z"/>
  <path class="cls-1" d="M240,487.71l3.57-1.79c-3-5.98-4.59-13.19-4.59-20.85,0-24.62,13.44-39.33,35.96-39.33s35.96,14.7,35.96,39.33c0,23.13-11.36,37.27-31.26,39.11l6.46-7.13-2.96-2.68-11.12,12.28,13.06,10.19,2.46-3.15-7.13-5.57c21.66-2.2,34.49-18.1,34.49-43.05,0-26.73-15.31-43.33-39.96-43.33s-39.96,16.6-39.96,43.33c0,8.28,1.73,16.11,5.02,22.65Z"/>
  <path class="cls-1" d="M331.34,444.32l2.72-2.93-6.83-6.35h25.79v77.06h4v-77.06h36.41v-4h-36.41v-18.7c-.01-.22-1.01-21.69,8.9-32.12,3.53-3.71,8.1-5.6,13.6-5.6s10.41,1.84,14,5.48c7.31,7.41,8.62,20.41,8.75,27.49l-6.66-6.9-2.88,2.78,11.5,11.92,11.05-12.34-2.98-2.67-6.05,6.75c-.2-7.74-1.76-21.59-9.9-29.83-4.37-4.43-10.04-6.67-16.85-6.67s-12.2,2.31-16.51,6.85c-10.93,11.52-10.07,33.48-9.99,35.03v18.54h-25.8l6.83-6.35-2.72-2.93-12.13,11.28,12.13,11.28Z"/>
  <polygon class="cls-1" points="166.45 37.64 166.45 184.54 170.45 184.54 170.45 37.64 176.8 44.47 179.73 41.75 168.45 29.62 157.17 41.75 160.1 44.47 166.45 37.64"/>
  <polygon class="cls-1" points="47.45 178.17 46.1 174.41 37.33 177.57 107.75 40.81 107.75 122.23 111.75 122.23 111.75 32.55 107.97 31.64 33.77 175.74 31.25 166.76 27.4 167.84 31.87 183.79 47.45 178.17"/>
  <polygon class="cls-1" points="86.73 166.62 82.89 167.72 87.43 183.65 102.99 177.96 101.61 174.2 92.86 177.41 153.24 58.89 149.68 57.07 89.29 175.59 86.73 166.62"/>
  <polygon class="cls-1" points="601.57 37.64 601.57 183.51 605.57 183.51 605.57 37.64 611.92 44.47 614.85 41.75 603.58 29.62 592.3 41.75 595.22 44.47 601.57 37.64"/>
  <polygon class="cls-1" points="293.27 89.1 293.27 183.59 297.27 183.59 297.27 89.1 303.62 95.93 306.55 93.21 295.27 81.07 283.99 93.21 286.92 95.93 293.27 89.1"/>
  <path class="cls-1" d="M233.54,89.85h.1c11.66.02,27.16,3.27,27.16,31.16v25.03c-.17.07-.34.15-.5.27-.87.67-1.03,1.93-.36,2.81.23.3.53.5.86.63v28.24l-6.35-6.83-2.93,2.72,11.28,12.13,11.28-12.13-2.93-2.72-6.35,6.83v-56.97c0-23.62-10.19-35.12-31.16-35.16h-.11c-24.22,0-35.89,14.68-36.37,15.3l3.16,2.46c.11-.14,11.03-13.76,33.22-13.76Z"/>
  <path class="cls-1" d="M205.33,180.09c4.85,2.55,10.82,3.86,16.79,3.86,3.84,0,7.68-.55,11.21-1.66,14.44-4.54,22.67-19.34,23.02-19.97l-3.51-1.92c-.08.14-7.83,14.02-20.71,18.07-.19.06-.4.12-.6.17-.07-.47-.31-.91-.7-1.23-.86-.69-2.12-.56-2.82.29-.42.52-.54,1.19-.38,1.79-6.26.96-14.05.41-20.45-2.95-5.15-2.7-8.59-6.76-10.23-12.06-2.04-6.59-1.39-13.32,1.87-19.45,3.87-7.27,11.19-13,20.11-15.7,10.84-3.29,22.71-2.12,29.02-1.08l-7.97,5.22,2.19,3.35,13.86-9.07-10.05-13.17-3.18,2.43,5.54,7.25c-6.72-1.08-19.11-2.23-30.56,1.24-9.92,3.01-18.12,9.44-22.48,17.65-3.77,7.1-4.52,14.88-2.16,22.51,1.93,6.26,6.15,11.25,12.19,14.42Z"/>
  <path class="cls-1" d="M536.26,89.85h.1c11.66.02,27.16,3.27,27.16,31.16v56.98l-6.35-6.83-2.93,2.72,11.28,12.13,11.28-12.13-2.93-2.72-6.35,6.83v-56.97c0-23.62-10.19-35.12-31.16-35.16h-.11c-24.22,0-35.89,14.68-36.37,15.3l3.16,2.46c.11-.14,11.03-13.76,33.22-13.76Z"/>
  <path class="cls-1" d="M495.86,165.67c1.93,6.26,6.15,11.25,12.19,14.42,4.85,2.55,10.82,3.86,16.79,3.86,3.84,0,7.68-.55,11.21-1.66,14.44-4.54,22.67-19.34,23.02-19.97l-3.51-1.92c-.08.14-7.83,14.02-20.71,18.07-6.62,2.08-16.9,2.29-24.95-1.93-5.15-2.7-8.59-6.76-10.23-12.06-2.04-6.59-1.39-13.32,1.87-19.45,3.87-7.27,11.19-13,20.11-15.7,10.84-3.29,22.71-2.12,29.02-1.08l-7.97,5.22,2.19,3.35,13.86-9.07-10.05-13.17-3.18,2.43,5.54,7.25c-6.72-1.08-19.11-2.23-30.56,1.24-9.92,3.01-18.12,9.44-22.48,17.65-.15.29-.29.58-.44.87-.73-.14-1.51.12-1.99.76-.66.88-.48,2.13.41,2.8.02.02.05.02.07.04-2,5.83-2.09,11.98-.22,18.04Z"/>
  <path class="cls-1" d="M306,110.14c.11-.24,11.32-23.47,36.31-19.91,25.03,3.58,25.03,29.92,25.03,44.08v44.2l-6.35-6.83-2.93,2.72,11.28,12.13,11.28-12.13-2.93-2.72-6.35,6.83v-44.19c0-14.27,0-43.97-28.47-48.04-27.93-3.99-40.38,21.92-40.5,22.18l3.62,1.7Z"/>
  <polygon class="cls-1" points="465.95 90.87 465.95 183.59 469.95 183.59 469.95 90.88 476.3 97.71 479.22 94.98 467.94 82.85 456.67 94.98 459.6 97.71 465.95 90.87"/>
  <path class="cls-1" d="M420.34,183.52c2.04.29,4,.42,5.88.42,16.79,0,26.95-10.75,31.7-17.58l1.44,8.86,3.95-.64-2.66-16.35-16.11,3.84.93,3.89,9.42-2.24c-4.65,6.81-15.48,18.46-33.99,15.84-25.03-3.54-25.03-29.65-25.03-43.68v-48.86h-4v48.86c0,14.16,0,43.61,28.47,47.64Z"/>
  <polygon class="cls-1" points="473.65 864.1 473.65 717.2 469.65 717.2 469.65 864.1 463.3 857.27 460.37 859.99 471.65 872.12 482.93 859.99 480 857.27 473.65 864.1"/>
  <polygon class="cls-1" points="592.65 723.57 594.01 727.33 602.78 724.17 532.36 860.93 532.36 779.5 528.36 779.5 528.36 869.19 532.14 870.1 606.34 726 608.86 734.98 612.71 733.9 608.23 717.95 592.65 723.57"/>
  <polygon class="cls-1" points="553.37 735.12 557.22 734.02 552.68 718.09 537.12 723.78 538.49 727.54 547.25 724.34 486.86 842.85 490.43 844.67 550.81 726.15 553.37 735.12"/>
  <polygon class="cls-1" points="38.53 864.1 38.53 718.22 34.53 718.22 34.53 864.1 28.18 857.27 25.25 859.99 36.53 872.12 47.81 859.99 44.88 857.27 38.53 864.1"/>
  <polygon class="cls-1" points="346.83 812.64 346.83 718.15 342.83 718.15 342.83 812.64 336.48 805.81 333.55 808.53 344.83 820.67 356.11 808.53 353.18 805.81 346.83 812.64"/>
  <path class="cls-1" d="M406.57,811.89h-.1c-11.66-.02-27.16-3.27-27.16-31.15v-56.98l6.35,6.83,2.93-2.72-11.28-12.13-11.28,12.13,2.93,2.72,6.35-6.83v56.98c0,23.62,10.19,35.12,31.16,35.15h.11c24.22,0,35.89-14.68,36.37-15.3l-3.16-2.45c-.11.14-10.92,13.75-33.21,13.75Z"/>
  <path class="cls-1" d="M434.78,721.65c-7.97-4.18-18.97-5.05-28.01-2.21-14.43,4.54-22.67,19.34-23.02,19.97l3.51,1.92c.08-.14,7.79-14.01,20.71-18.07,6.62-2.08,16.9-2.29,24.95,1.93,5.15,2.7,8.59,6.76,10.23,12.06,2.04,6.59,1.39,13.32-1.87,19.45-3.87,7.27-11.19,12.99-20.11,15.69-10.84,3.29-22.71,2.12-29.02,1.08l7.97-5.22-2.19-3.35-13.86,9.07,10.05,13.17,3.18-2.43-5.54-7.25c3.33.54,8.04,1.09,13.35,1.09s11.44-.57,17.22-2.33c9.92-3.01,18.12-9.44,22.48-17.65,3.77-7.1,4.52-14.88,2.16-22.51-1.93-6.26-6.15-11.25-12.19-14.42Z"/>
  <path class="cls-1" d="M103.84,811.89h-.1c-11.66-.02-27.16-3.27-27.16-31.15v-56.98l6.35,6.83,2.93-2.72-11.28-12.13-11.28,12.13,2.93,2.72,6.35-6.83v56.98c0,23.62,10.19,35.12,31.16,35.15h.11c24.22,0,35.89-14.68,36.37-15.3l-3.16-2.45c-.11.14-10.92,13.75-33.21,13.75Z"/>
  <path class="cls-1" d="M132.05,721.65c-7.97-4.18-18.97-5.05-28.01-2.21-14.43,4.54-22.67,19.34-23.02,19.97l3.51,1.92c.08-.14,7.79-14.01,20.71-18.07,6.62-2.08,16.9-2.29,24.95,1.93,5.15,2.7,8.59,6.76,10.23,12.06,2.04,6.59,1.39,13.32-1.87,19.45-3.87,7.27-11.19,12.99-20.11,15.69-10.84,3.29-22.71,2.12-29.02,1.08l7.97-5.22-2.19-3.35-13.86,9.07,10.05,13.17,3.18-2.43-5.54-7.25c3.33.54,8.04,1.09,13.35,1.09s11.44-.57,17.22-2.33c9.92-3.01,18.12-9.44,22.48-17.65,3.77-7.1,4.52-14.88,2.16-22.51-1.93-6.26-6.15-11.25-12.19-14.42Z"/>
  <path class="cls-1" d="M334.1,791.6c-.11.24-11.31,23.48-36.31,19.91-25.03-3.58-25.03-29.92-25.03-44.08v-44.2l6.35,6.83,2.93-2.72-11.28-12.13-11.28,12.13,2.93,2.72,6.35-6.83v44.19c0,14.27,0,43.97,28.47,48.04,2,.29,3.91.42,5.75.42,23.89,0,34.64-22.35,34.76-22.59l-3.62-1.7Z"/>
  <polygon class="cls-1" points="174.16 810.87 174.16 718.15 170.16 718.15 170.16 810.86 163.81 804.03 160.88 806.76 172.16 818.89 183.44 806.76 180.51 804.03 174.16 810.87"/>
  <path class="cls-1" d="M219.76,718.22c-20.33-2.87-32.29,9.57-37.58,17.16l-1.44-8.87-3.95.64,2.66,16.35,16.11-3.84-.93-3.89-9.42,2.24c4.65-6.82,15.48-18.47,33.99-15.84,25.03,3.54,25.03,29.65,25.03,43.68v48.86h4v-48.86c0-14.16,0-43.61-28.47-47.64Z"/>
  <path class="cls-1" d="M598.97,495.64c-1.97,46.52-20.34,90.85-51.99,125.19-35.68,38.72-84.3,61.22-136.91,63.37-52.61,2.14-102.9-16.32-141.62-52-24.42-22.5-42.43-50.48-52.92-81.19.23.09.48.14.73.14.48,0,.96-.17,1.34-.51.82-.74.89-2,.15-2.82-.74-.82-2-.89-2.82-.16-.15.14-.27.3-.37.46-6.54-20.16-9.85-41.44-9.62-63.09l6.27,6.95,2.97-2.68-11.1-12.29-11.45,11.97,2.89,2.77,6.42-6.71c-.18,17.18,1.82,34.13,5.87,50.5-.37.02-.75.14-1.07.37-.9.64-1.1,1.9-.46,2.79.39.54,1,.83,1.63.83.29,0,.59-.09.86-.23,9.75,36.42,29.65,69.74,57.97,95.84,37.44,34.5,85.48,53.23,136.09,53.23,2.79,0,5.6-.06,8.4-.17,53.67-2.19,103.28-25.15,139.69-64.65,32.26-35,51-80.18,53.04-127.59l6.05,6.94,3.02-2.63-10.88-12.49-11.66,11.76,2.84,2.82,6.65-6.71Z"/>
  <path class="cls-1" d="M470.98,483.72c0,3.64,2.95,6.59,6.59,6.59s6.59-2.95,6.59-6.59-2.95-6.59-6.59-6.59-6.59,2.95-6.59,6.59Z"/>
  <circle class="cls-1" cx="601.9" cy="462.3" r="6.59"/>
  <circle class="cls-1" cx="385.3" cy="327.73" r="6.59"/>
  <circle class="cls-1" cx="180.5" cy="302.54" r="6.59"/>
  <path class="cls-1" d="M442.73,522.39c.3.16.61.23.92.23.73,0,1.42-.39,1.78-1.08.51-.98.13-2.18-.85-2.7-.98-.51-2.18-.13-2.69.85-.52.98-.14,2.19.84,2.7Z"/>
  <path class="cls-1" d="M457.79,480.27c.96,0,1.81-.7,1.96-1.68.18-1.09-.56-2.12-1.65-2.3-1.08-.17-2.11.56-2.29,1.66-.18,1.09.56,2.11,1.65,2.29.11.02.22.03.33.03Z"/>
  <path class="cls-1" d="M455.84,433.97c.16.98,1,1.68,1.97,1.68.1,0,.21,0,.32-.03,1.09-.18,1.83-1.2,1.66-2.29-.18-1.09-1.21-1.83-2.3-1.66-1.09.18-1.83,1.21-1.65,2.3Z"/>
  <path class="cls-1" d="M454.05,494.78c.18.05.36.08.54.08.87,0,1.68-.59,1.92-1.47.3-1.07-.33-2.17-1.4-2.46-1.06-.3-2.16.33-2.46,1.39-.29,1.07.33,2.17,1.4,2.46Z"/>
  <path class="cls-1" d="M450.59,505.17c-1.03-.4-2.19.1-2.6,1.13-.4,1.03.1,2.19,1.13,2.59.24.1.49.14.74.14.79,0,1.55-.48,1.86-1.27h-.01c.41-1.02-.1-2.18-1.12-2.59Z"/>
  <path class="cls-1" d="M456.56,418.52c-.29-1.07-1.39-1.69-2.46-1.4-1.06.29-1.69,1.39-1.4,2.45.25.89,1.05,1.47,1.93,1.47.18,0,.36-.02.53-.07,1.07-.29,1.69-1.39,1.4-2.46h0Z"/>
  <path class="cls-1" d="M459.3,446.49c-1.1.06-1.95,1-1.89,2.1.06,1.07.94,1.9,2,1.9h.1c1.11-.07,1.95-1.01,1.9-2.11-.06-1.1-1.01-1.95-2.11-1.89Z"/>
  <path class="cls-1" d="M461.4,463.53c.06-1.1-.79-2.05-1.89-2.11-1.11-.05-2.05.79-2.11,1.89-.06,1.1.79,2.05,1.89,2.11h.11c1.05,0,1.94-.82,2-1.89Z"/>
  <path class="cls-1" d="M327.29,318.51h.11c1.05,0,1.94-.83,1.99-1.89.06-1.1-.79-2.05-1.89-2.1-1.1-.06-2.04.79-2.1,1.89-.06,1.1.79,2.04,1.89,2.1Z"/>
  <path class="cls-1" d="M225.32,558.36c-.73.82-.67,2.09.15,2.83.39.34.86.51,1.34.51.55,0,1.09-.22,1.49-.66.74-.83.67-2.09-.15-2.83s-2.09-.67-2.83.15Z"/>
  <path class="cls-1" d="M194.16,397.72c.75,0,1.46-.42,1.81-1.14.47-.99.05-2.18-.95-2.66-1-.48-2.19-.05-2.66.94-.48,1-.06,2.19.94,2.67.28.13.57.19.86.19Z"/>
  <path class="cls-1" d="M208.22,369.1c-.68.87-.52,2.13.35,2.8.36.29.8.42,1.23.42.59,0,1.18-.26,1.58-.77.67-.88.52-2.13-.36-2.81-.87-.67-2.13-.52-2.8.36Z"/>
  <path class="cls-1" d="M199.59,381.55c-.58.94-.28,2.17.66,2.75.32.2.69.3,1.04.3.67,0,1.33-.34,1.71-.96.58-.94.28-2.17-.66-2.75-.94-.58-2.17-.28-2.75.66Z"/>
  <path class="cls-1" d="M230.49,350.88c.45,0,.91-.15,1.28-.46.85-.71.96-1.97.25-2.82-.71-.85-1.97-.96-2.81-.25-.85.71-.97,1.97-.26,2.81.4.48.97.72,1.54.72Z"/>
  <path class="cls-1" d="M218.18,360.48c.38.38.88.56,1.38.56.53,0,1.05-.2,1.44-.61.77-.79.75-2.06-.05-2.83-.79-.77-2.06-.74-2.83.05-.76.8-.74,2.06.06,2.83Z"/>
  <path class="cls-1" d="M268.85,328.1c.25,0,.5-.05.74-.14,1.02-.41,1.53-1.57,1.12-2.6-.4-1.03-1.56-1.53-2.59-1.12-1.03.4-1.53,1.56-1.12,2.59.31.79,1.06,1.27,1.85,1.27Z"/>
  <path class="cls-1" d="M283.02,323.35c.17,0,.35-.02.53-.07,1.06-.3,1.69-1.4,1.39-2.46-.29-1.07-1.39-1.69-2.46-1.4-1.06.29-1.68,1.4-1.39,2.46.24.89,1.05,1.47,1.93,1.47Z"/>
  <path class="cls-1" d="M297.28,316.18c-1.09.18-1.83,1.21-1.65,2.3.16.98,1.01,1.68,1.97,1.68.11,0,.22,0,.33-.03,1.09-.18,1.83-1.21,1.65-2.3-.18-1.09-1.21-1.83-2.3-1.65Z"/>
  <path class="cls-1" d="M310.46,316.64c.06,1.07.94,1.9,1.99,1.9.04,0,.08,0,.11,0,1.11-.06,1.95-1,1.89-2.1-.06-1.11-1-1.95-2.11-1.89-1.1.06-1.94,1-1.88,2.1Z"/>
  <path class="cls-1" d="M186.92,499.61c.2,0,.4-.03.6-.09,1.05-.33,1.64-1.45,1.31-2.51-.34-1.05-1.46-1.64-2.51-1.31-1.06.33-1.64,1.46-1.31,2.51.27.86,1.06,1.4,1.91,1.4Z"/>
  <path class="cls-1" d="M192.15,513.6c.27,0,.54-.06.8-.17,1.01-.44,1.48-1.62,1.03-2.63-.44-1.01-1.62-1.47-2.63-1.03-1.01.44-1.47,1.62-1.03,2.63.33.75,1.06,1.2,1.83,1.2Z"/>
  <path class="cls-1" d="M436.05,535.46c.64,0,1.27-.31,1.66-.89.61-.92.37-2.16-.55-2.77-.92-.62-2.16-.37-2.78.55-.61.92-.36,2.16.56,2.78.34.23.72.33,1.11.33Z"/>
  <path class="cls-1" d="M190.35,410.18c.37-1.04-.18-2.18-1.22-2.55s-2.19.18-2.55,1.22c-.37,1.04.18,2.19,1.22,2.55.22.08.45.12.67.12.82,0,1.59-.52,1.88-1.34Z"/>
  <path class="cls-1" d="M197.85,523.22c-.96.55-1.3,1.77-.75,2.73.37.65,1.04,1.01,1.74,1.01.33,0,.67-.08.99-.26.96-.55,1.29-1.77.74-2.73-.54-.96-1.76-1.3-2.72-.75Z"/>
  <path class="cls-1" d="M180.48,455.44h.04c1.09,0,1.98-.87,2-1.97.02-1.1-.86-2.02-1.96-2.03-1.11-.03-2.02.86-2.04,1.96-.02,1.11.86,2.01,1.96,2.04Z"/>
  <path class="cls-1" d="M183.21,485.15c.13,0,.26-.02.39-.04,1.08-.22,1.79-1.28,1.57-2.36-.22-1.08-1.27-1.78-2.36-1.57-1.08.22-1.78,1.28-1.56,2.36.19.95,1.02,1.61,1.96,1.61Z"/>
  <path class="cls-1" d="M179.6,438.3c-.13,1.09.64,2.1,1.74,2.23.08,0,.17.02.25.02.99,0,1.86-.74,1.98-1.75.14-1.1-.64-2.1-1.73-2.23-1.09-.15-2.09.63-2.24,1.73Z"/>
  <path class="cls-1" d="M184.26,425.85c.9,0,1.72-.61,1.94-1.53.25-1.08-.41-2.16-1.49-2.41-1.07-.25-2.15.41-2.4,1.48-.26,1.08.41,2.16,1.48,2.41.16.04.31.05.47.05Z"/>
  <path class="cls-1" d="M181.06,470.36h.18c1.11-.11,1.92-1.08,1.82-2.18-.1-1.1-1.07-1.91-2.18-1.81-1.1.1-1.91,1.07-1.81,2.17.1,1.04.97,1.82,1.99,1.82Z"/>
  <path class="cls-1" d="M255.28,334.3c.31,0,.63-.07.93-.23.97-.51,1.35-1.72.84-2.7-.51-.97-1.72-1.35-2.7-.84-.98.51-1.36,1.72-.84,2.7.35.68,1.05,1.07,1.77,1.07Z"/>
  <path class="cls-1" d="M351.66,589.72c-1.07.25-1.74,1.33-1.48,2.41.21.91,1.03,1.53,1.94,1.53.15,0,.31-.01.46-.05h0c1.07-.25,1.73-1.33,1.48-2.41-.26-1.07-1.33-1.74-2.41-1.48Z"/>
  <path class="cls-1" d="M379.39,579.93h-.01c-.99.47-1.41,1.67-.94,2.66.34.72,1.06,1.14,1.81,1.14.29,0,.58-.06.86-.19,1-.48,1.42-1.67.94-2.67-.48-1-1.67-1.42-2.66-.94Z"/>
  <path class="cls-1" d="M320.53,595.44c.02,1.09.91,1.96,1.99,1.96h.04c1.11-.02,1.98-.93,1.97-2.04-.02-1.1-.94-1.98-2.04-1.96-1.1.02-1.98.93-1.96,2.04Z"/>
  <path class="cls-1" d="M335.44,594.59c.13,1.01.99,1.75,1.99,1.75.08,0,.16-.01.25-.02,1.09-.14,1.87-1.14,1.73-2.23-.14-1.1-1.14-1.88-2.24-1.74h.01c-1.1.14-1.87,1.14-1.74,2.24Z"/>
  <path class="cls-1" d="M242.44,341.93c.38,0,.77-.11,1.11-.34.92-.61,1.16-1.86.55-2.77-.61-.92-1.86-1.17-2.77-.56-.92.62-1.17,1.86-.56,2.78.39.58,1.02.89,1.67.89Z"/>
  <path class="cls-1" d="M428.63,546.69c.71-.85.6-2.11-.25-2.82-.85-.71-2.11-.59-2.82.25-.71.85-.59,2.11.25,2.82.38.31.83.47,1.29.47.57,0,1.13-.25,1.53-.72Z"/>
  <path class="cls-1" d="M404.4,564.51c-.87.68-1.03,1.93-.35,2.8.39.51.98.78,1.58.78.43,0,.86-.14,1.22-.42.87-.68,1.03-1.93.36-2.8-.68-.88-1.93-1.04-2.81-.36Z"/>
  <path class="cls-1" d="M392.3,572.89c-.94.58-1.23,1.81-.65,2.75.38.62,1.04.95,1.71.95.35,0,.72-.09,1.04-.3.95-.57,1.23-1.81.66-2.75-.58-.94-1.81-1.23-2.76-.65Z"/>
  <path class="cls-1" d="M365.78,585.56c-1.04.37-1.58,1.51-1.22,2.55.3.82,1.07,1.34,1.89,1.34.22,0,.45-.04.67-.12,1.04-.36,1.59-1.51,1.22-2.55-.37-1.04-1.51-1.59-2.56-1.22Z"/>
  <path class="cls-1" d="M276.44,588.42c-.33,1.05.26,2.17,1.31,2.5.2.07.4.1.6.1.85,0,1.64-.55,1.91-1.4.33-1.06-.26-2.18-1.31-2.51-1.06-.33-2.18.26-2.51,1.31Z"/>
  <path class="cls-1" d="M249.26,576.14c-.55.96-.21,2.18.75,2.72.31.18.65.26.98.26.7,0,1.38-.36,1.74-1.01.55-.96.22-2.18-.75-2.73-.96-.54-2.18-.21-2.72.76Z"/>
  <path class="cls-1" d="M262.52,583.01c-.44,1.01.03,2.18,1.04,2.62.26.12.53.17.8.17.77,0,1.5-.45,1.83-1.2.44-1.02-.02-2.19-1.04-2.63-1.01-.44-2.19.02-2.63,1.04Z"/>
  <path class="cls-1" d="M239.6,567.44c-.9-.65-2.15-.45-2.8.45-.64.9-.44,2.15.46,2.79.35.26.76.38,1.17.38.62,0,1.23-.29,1.62-.83.65-.9.44-2.15-.45-2.79Z"/>
  <path class="cls-1" d="M342.56,316.14c-1.09-.18-2.11.56-2.29,1.66-.17,1.09.56,2.12,1.65,2.29.11.02.22.03.33.03.96,0,1.81-.7,1.97-1.68.18-1.09-.57-2.12-1.66-2.3Z"/>
  <path class="cls-1" d="M416.92,558.32c.5,0,1-.19,1.38-.56.8-.77.82-2.03.06-2.83-.77-.79-2.03-.82-2.83-.05-.8.76-.82,2.03-.05,2.83.39.4.91.61,1.44.61Z"/>
  <path class="cls-1" d="M305.6,594.68c-.1,1.1.71,2.07,1.81,2.17.07,0,.13,0,.19,0,1.02,0,1.89-.78,1.99-1.82.1-1.1-.71-2.07-1.82-2.17-1.1-.1-2.07.71-2.17,1.81Z"/>
  <path class="cls-1" d="M290.85,592.32c-.21,1.09.49,2.14,1.57,2.36.13.03.27.04.4.04.93,0,1.77-.66,1.95-1.61.22-1.08-.48-2.14-1.56-2.35-1.09-.22-2.14.48-2.36,1.56Z"/>
  <path class="cls-1" d="M345.2,330.07l14.49-8.03-1.04-1.6c-.04-.09-.08-.18-.14-.26-.05-.07-.11-.14-.17-.21l-7.71-11.8-3.35,2.19,6.71,10.27-10.73,5.94,1.94,3.5Z"/>
  <polygon class="cls-1" points="463.34 408.88 448.53 401.46 442.2 416.77 445.9 418.3 450.58 406.96 461.55 412.46 463.34 408.88"/>
  <path class="cls-1" d="M157.23,613.08l-3.59,1.76,4.2,8.59c-38.98-15.1-70.34-44.05-88.57-81.88-18.83-39.08-21.5-83.22-7.53-124.29,14.83-43.6,47.22-78.88,89.26-97.44l-3.58,8.23,3.67,1.6,6.61-15.19-15.63-5.49-1.33,3.77,9.13,3.21c-43.29,18.95-76.67,55.19-91.92,100.02-14.31,42.07-11.57,87.28,7.71,127.31,18.62,38.65,50.63,68.24,90.42,83.75l-8.44,3.39,1.49,3.71,15.37-6.17-7.28-14.88Z"/>
</svg>