<?xml version="1.0" encoding="UTF-8"?>
<svg id="_레이어_4" data-name=" 레이어 4" xmlns="http://www.w3.org/2000/svg" viewBox="0 0 638.68 411.77">
  <defs>
    <style>
      .cls-1 {
        fill: #fff;
        stroke-width: 0px;
      }
    </style>
  </defs>
  <g>
    <path class="cls-1" d="M83.36,165.02l-1.55,1.06.24.44,1.85-1.25v-7.3l-1.85-1.25-.24.42,1.55,1.06v6.83ZM78.7,161.95c.4.28.61.68.61,1.2s-.2.94-.6,1.27c-.4.31-.91.47-1.54.47h-2.07v-3.36h1.86c.76,0,1.33.14,1.74.41M78.38,158.27c.25.26.37.57.37.94,0,.46-.17.84-.52,1.14-.35.29-.85.44-1.5.44h-1.62v-2.93h2.01c.54,0,.97.14,1.26.41M74.24,165.64h3.29c.75,0,1.38-.24,1.91-.71.54-.48.82-1.08.82-1.8,0-.44-.13-.84-.38-1.2-.33-.46-.88-.76-1.62-.88.19-.09.36-.18.51-.27s.27-.2.38-.32c.36-.38.53-.84.53-1.39,0-.66-.25-1.17-.75-1.53-.43-.3-1.01-.45-1.74-.45h-2.93v8.54ZM71.08,158.17l1.55-1.01-.24-.45-1.85,1.25v7.3l1.85,1.25.24-.43-1.55-1.06v-6.86ZM63.92,163.59c-.14-.11-.26-.21-.36-.31-.1-.1-.2-.18-.28-.26-.24-.25-.45-.5-.62-.76-.17-.26-.32-.51-.44-.75-.12-.24-.22-.48-.3-.71-.08-.23-.15-.44-.2-.64l-.18-.83s.04-.23.11-.59c.01-.06.03-.13.04-.21.01-.08.03-.19.05-.31,0-.03.03-.07.07-.13.04-.06.06-.1.06-.13,0-.06-.12-.13-.37-.18-.12-.03-.23-.05-.32-.07-.09-.01-.16-.02-.22-.02-.01.2-.03.38-.04.53-.01.15-.03.29-.04.41-.09.73-.23,1.34-.42,1.82-.13.34-.28.67-.46.97-.18.31-.38.6-.59.88-.32.4-.65.74-.99,1.01-.25.2-.4.31-.44.31l-.04.07.07.04.18.13.4.27c.12-.1.24-.2.36-.31.12-.1.24-.2.36-.31.14-.15.28-.29.41-.44.13-.15.25-.29.37-.45.45-.61.78-1.19.99-1.73.03-.09.06-.2.1-.33.04.16.08.33.14.5.05.17.12.36.2.54.08.19.15.36.22.51.07.15.14.28.21.4.12.2.25.38.37.54.12.16.25.31.37.45.12.1.23.2.34.29.11.09.22.19.34.29l.09-.07c.11-.09.19-.16.25-.22l.16-.11c.06-.04.09-.07.09-.1l-.02-.04ZM66.3,156.85c-.1-.01-.2-.03-.29-.03-.09,0-.18-.01-.26-.01,0,.04.01.08.02.11,0,.04,0,.09,0,.15,0,.06.01.15.01.26v3.15h-2.37v.77l2.37-.06-.04,5.38.83-.04-.03-5.63.03-3.51c0-.06.01-.13.03-.2.02-.08.03-.13.03-.16,0-.08-.11-.14-.33-.18M55.56,156.84c-.12-.02-.29-.03-.51-.03h-.2c.01.07.03.18.03.33,0,.15.01.35.01.62v.95s-.82.01-.82.01l-1.29-.03v.71c.06,0,.11-.01.16-.02.05,0,.09,0,.13,0,.41-.02.77-.03,1.08-.03l.72-.02v1.39h-.64s-1.45-.01-1.45-.01v.69c.23-.01.48-.03.74-.03.26,0,.51-.01.75-.01h.6v.88c0,.16,0,.29,0,.38,0,.09,0,.17,0,.22s0,.1-.01.13l.83-.02c-.02-.11-.02-.23-.03-.38,0-.14,0-.31-.02-.5,0-.19-.01-.47-.01-.83v-1.37c0-.24.01-.48.01-.72s0-.48.01-.72c0-.25.01-.46.01-.63v-.41s.01-.1.04-.19c.03-.09.04-.15.04-.19,0-.08-.06-.13-.19-.15M52.21,161.12c0-.38-.01-.78-.01-1.2l.03-2.21-2.58.02-1.84-.02c.01.28.03.6.03.95s.01.71.01,1.08l-.03,2.43,4.42-.02c-.01-.31-.03-.65-.03-1.02M54.75,163.55c-.59-.27-1.42-.4-2.48-.4s-1.89.12-2.53.37c-.75.27-1.12.69-1.12,1.26s.35,1.04,1.06,1.34c.62.25,1.43.38,2.45.38,1.1,0,1.97-.13,2.59-.39.68-.29,1.01-.73,1.01-1.31,0-.54-.33-.96-.98-1.25M50.11,161.51l-1.51-.02v-3.1s2.84,0,2.84,0v3.1l-1.33.02ZM54.1,165.69c-.23.07-.51.12-.83.15-.32.03-.69.04-1.12.04s-.75-.02-1.06-.05c-.31-.04-.58-.09-.81-.17-.56-.19-.84-.48-.84-.88s.28-.66.83-.82c.43-.12,1.01-.18,1.74-.18h.26c.37,0,.7.02.99.05.29.03.55.08.77.14.64.16.96.45.96.87s-.3.69-.89.86M44.64,156.85c-.13-.03-.29-.04-.48-.04h-.21l.03,2.07c0,.13-.01.21-.03.24-.04.04-.1.05-.18.05l-1.87-.05v.75l2.07-.03v1.05s-.02,1.07-.02,1.07c0,.09.12.14.35.14.19,0,.32-.01.39-.04.07-.03.1-.1.1-.21,0-.12-.01-.25-.02-.38,0-.13,0-.27-.02-.41v-1.57c0-.54,0-1.01.01-1.4,0-.39.02-.65.02-.79,0-.02,0-.07.03-.14.02-.07.03-.12.03-.15,0-.08-.07-.13-.2-.16M42.04,161.17c-.06,0-.23-.09-.48-.27-.36-.24-.68-.54-.95-.9-.19-.25-.34-.51-.46-.8-.12-.29-.2-.59-.25-.92,0-.1,0-.2,0-.31,0-.1,0-.18.02-.23,0-.01.02-.05.05-.11.03-.06.05-.11.05-.15,0-.07-.09-.12-.28-.14-.2-.02-.38-.03-.56-.03-.01.18-.03.34-.05.48-.02.14-.04.27-.07.38-.14.68-.39,1.27-.76,1.79-.4.55-.89,1.03-1.48,1.45-.04.04-.1.08-.16.11-.06.04-.13.08-.21.13-.02.01-.05.03-.07.05-.03.02-.06.04-.09.05,0,.02.1.1.29.24.05.04.1.07.15.11.05.04.11.08.18.12.08-.05.15-.1.22-.15.07-.05.13-.09.19-.13.17-.12.34-.27.51-.43.17-.16.35-.34.53-.54.26-.3.48-.59.67-.89.18-.29.33-.56.43-.79.04.1.07.19.1.26.03.07.06.14.09.2.09.18.18.35.27.51s.19.3.29.42c.25.31.56.6.92.86.06.05.13.1.21.15.08.05.18.1.29.16.04-.04.07-.07.09-.1.02-.03.04-.06.05-.07.1-.11.18-.18.24-.22.06-.04.1-.08.14-.13,0,0,0-.01.01-.02l-.13-.13ZM44.85,165.54c-.6.02-1.2.04-1.8.05-.61.01-1.17.02-1.68.02l-2.33-.02v-.92h2.3s3.38.01,3.38.01l-.03-.99.03-1.09-3.46.02h-.54c-.23,0-.51,0-.83-.01-.33,0-.64-.01-.92-.02-.28,0-.53-.01-.75-.02v.63l3.04-.03,2.66.02v.86h-5.64s.03,1.14.03,1.14l-.03,1.05,3.01-.03,3.58.02v-.7Z"/>
    <path class="cls-1" d="M105.51,369.53l-1.55,1.06.24.44,1.85-1.25v-7.3l-1.85-1.25-.24.42,1.55,1.06v6.83ZM97.53,366.48l1.43-3.84,1.32,3.84h-2.75ZM95.25,370.15h.95l1.07-2.92h3.25l1.02,2.92h1l-3.18-8.54h-.84l-3.27,8.54ZM92.34,362.68l1.55-1.01-.24-.45-1.85,1.25v7.3l1.85,1.25.24-.43-1.55-1.06v-6.86ZM85.18,368.11c-.14-.11-.26-.21-.36-.3-.1-.1-.2-.18-.28-.26-.24-.25-.45-.5-.62-.76-.17-.26-.32-.51-.44-.75-.12-.24-.22-.48-.3-.71-.08-.23-.15-.44-.2-.64l-.18-.83s.04-.23.11-.59c.01-.06.03-.13.04-.21.01-.08.03-.19.05-.31,0-.03.03-.07.07-.13.04-.06.06-.1.06-.13,0-.06-.12-.13-.37-.18-.12-.03-.23-.05-.32-.07-.09-.01-.16-.02-.22-.02-.01.2-.03.38-.04.53-.01.15-.03.29-.04.41-.09.73-.23,1.34-.42,1.82-.13.34-.28.67-.46.97-.18.31-.38.6-.59.88-.32.4-.65.74-.99,1.01-.25.2-.4.31-.44.31l-.04.07.07.04.18.13.4.27c.12-.1.24-.2.36-.3s.24-.2.36-.31c.14-.15.28-.29.41-.44.13-.15.25-.29.37-.45.45-.61.78-1.19.99-1.73.03-.09.06-.2.1-.33.04.16.08.33.14.5.05.17.12.36.2.54s.15.36.22.51c.07.15.14.28.21.4.12.2.25.38.37.54.12.16.25.31.37.45.12.1.23.2.34.29.11.09.22.19.34.29l.09-.07c.11-.09.19-.16.25-.22l.16-.11c.06-.04.09-.07.09-.1l-.02-.04ZM87.55,361.36c-.1-.01-.2-.03-.29-.03-.09,0-.18-.01-.26-.01,0,.04.01.08.02.11,0,.04,0,.09,0,.15,0,.06.01.15.01.26v3.15h-2.37v.77l2.37-.06-.04,5.38.83-.04-.03-5.63.03-3.51c0-.06.01-.13.03-.2.02-.08.03-.13.03-.16,0-.08-.11-.14-.33-.18M76.81,361.35c-.12-.02-.29-.03-.51-.03h-.2c.01.07.03.18.03.33,0,.15.01.35.01.62v.95s-.82.01-.82.01l-1.29-.03v.71c.06,0,.11-.01.16-.02.05,0,.09,0,.13,0,.41-.02.77-.03,1.08-.03l.72-.02v1.39h-.64s-1.45-.01-1.45-.01v.69c.23-.01.48-.03.74-.03.26,0,.51-.01.75-.01h.6v.88c0,.16,0,.29,0,.38,0,.09,0,.17,0,.22s0,.1-.01.13l.83-.02c-.02-.11-.02-.23-.03-.38,0-.14,0-.31-.02-.5,0-.19-.01-.47-.01-.83v-1.37c0-.24.01-.48.01-.72s0-.48.01-.72c0-.25.01-.46.01-.63v-.41s.01-.1.04-.19.04-.15.04-.19c0-.08-.06-.13-.19-.15M73.47,365.63c0-.38-.01-.78-.01-1.2l.03-2.21-2.58.02-1.84-.02c.01.28.03.6.03.95,0,.35.01.71.01,1.08l-.03,2.43,4.42-.02c-.01-.3-.03-.65-.03-1.02M76.01,368.06c-.59-.27-1.42-.4-2.48-.4s-1.89.12-2.53.37c-.75.27-1.12.69-1.12,1.26s.35,1.04,1.06,1.34c.62.25,1.43.38,2.45.38,1.1,0,1.97-.13,2.59-.39.68-.29,1.01-.73,1.01-1.31,0-.54-.33-.96-.98-1.25M71.37,366.03l-1.51-.02v-3.1s2.84,0,2.84,0v3.1l-1.33.02ZM75.36,370.2c-.23.07-.51.12-.83.15-.32.03-.69.04-1.12.04s-.75-.02-1.06-.05c-.31-.04-.58-.09-.81-.17-.56-.19-.84-.48-.84-.88s.28-.66.83-.82c.43-.12,1.01-.18,1.74-.18h.26c.37,0,.7.02.99.05.29.03.55.08.77.14.64.16.96.45.96.87s-.3.69-.89.86M65.9,361.36c-.13-.03-.29-.04-.48-.04h-.21l.03,2.07c0,.13-.01.21-.03.24-.04.04-.1.05-.18.05l-1.87-.05v.75l2.07-.03v1.05s-.02,1.07-.02,1.07c0,.09.12.14.35.14.19,0,.32-.01.39-.04.07-.03.1-.1.1-.21,0-.12-.01-.25-.02-.38,0-.13,0-.27-.02-.41v-1.57c0-.54,0-1.01.01-1.4,0-.39.02-.65.02-.79,0-.02,0-.07.03-.14.02-.07.03-.12.03-.15,0-.08-.07-.13-.2-.16M63.3,365.68c-.06,0-.23-.09-.48-.27-.36-.24-.68-.54-.95-.9-.19-.25-.34-.51-.46-.8-.12-.29-.2-.59-.25-.92,0-.1,0-.2,0-.31,0-.1,0-.18.02-.23,0-.01.02-.05.05-.11.03-.06.05-.11.05-.15,0-.07-.09-.12-.28-.14-.2-.02-.38-.03-.56-.03-.01.18-.03.34-.05.48-.02.14-.04.27-.07.38-.14.68-.39,1.27-.76,1.79-.4.55-.89,1.03-1.48,1.45-.04.04-.1.08-.16.11-.06.04-.13.08-.21.13-.02.02-.05.03-.07.05-.03.02-.06.04-.09.05,0,.02.1.1.29.24.05.04.1.07.15.11.05.04.11.08.18.12.08-.05.15-.1.22-.15.07-.05.13-.09.19-.13.17-.12.34-.27.51-.43.17-.16.35-.34.53-.54.26-.3.48-.59.67-.89.18-.29.33-.56.43-.79.04.1.07.19.1.26.03.07.06.14.09.2.09.18.18.35.27.51s.19.3.29.42c.25.31.56.6.92.86.06.05.13.1.21.15.08.05.18.1.29.16.04-.04.07-.07.09-.1.02-.03.04-.06.05-.07.1-.11.18-.18.24-.22.06-.04.1-.08.14-.13,0,0,0-.01.01-.02l-.13-.13ZM66.11,370.05c-.6.02-1.2.04-1.8.05-.61.01-1.17.02-1.68.02l-2.33-.02v-.92h2.3s3.38.01,3.38.01l-.03-.99.03-1.09-3.46.02h-.54c-.23,0-.51,0-.83-.01-.33,0-.64-.01-.92-.02-.28,0-.53-.01-.75-.02v.63l3.04-.03,2.66.02v.86h-5.64s.03,1.14.03,1.14l-.03,1.05,3.01-.03,3.58.02v-.7Z"/>
  </g>
  <path class="cls-1" d="M221.73,209.5h-1.23v1.31h1.23v-1.31ZM217.89,209.5h-1.23v1.31h1.23v-1.31ZM214.05,209.5h-1.24v1.31h1.24v-1.31Z"/>
  <path class="cls-1" d="M524.72,107.68h-1.23v1.32h1.23v-1.32ZM520.88,107.68h-1.23v1.32h1.23v-1.32ZM517.04,107.68h-1.24v1.32h1.24v-1.32Z"/>
  <path class="cls-1" d="M164.31,95.38h-1.23v1.32h1.23v-1.32ZM160.47,95.38h-1.23v1.32h1.23v-1.32ZM156.63,95.38h-1.24v1.32h1.24v-1.32Z"/>
  <g>
    <path class="cls-1" d="M205.14,289.05c-.01-.39.29-.71.68-.72.39-.01.71.29.73.68.01.39-.29.71-.68.73h-.03c-.38,0-.69-.3-.7-.68M210.37,289.84c-.39-.03-.68-.37-.64-.76.03-.39.37-.68.76-.64.39.03.67.37.64.76-.03.37-.34.64-.7.64h-.06M200.59,289.56c-.06-.38.2-.74.58-.8.38-.06.74.2.8.58.06.38-.2.74-.58.8-.04,0-.07,0-.11,0-.34,0-.64-.25-.69-.6M196.12,290.62c-.1-.37.11-.76.49-.86.37-.1.76.11.87.49.1.37-.11.76-.49.87-.06.02-.13.03-.19.03-.31,0-.59-.2-.68-.51M191.82,292.2c-.15-.36.02-.77.38-.92.36-.15.77.02.92.38.15.36-.02.77-.38.92-.09.03-.18.05-.27.05-.28,0-.54-.16-.65-.43M187.73,294.28c-.19-.34-.07-.77.27-.96.34-.19.77-.07.96.27.19.34.07.77-.27.96-.11.06-.23.09-.34.09-.25,0-.48-.13-.61-.36M183.92,296.84c-.23-.31-.16-.75.15-.98.31-.23.75-.16.98.15.23.31.16.75-.15.98-.13.09-.27.13-.41.13-.22,0-.43-.1-.57-.29M180.44,299.82c-.26-.28-.25-.73.04-.99.28-.26.73-.25.99.04.26.28.25.73-.04.99-.14.12-.31.19-.48.19-.19,0-.38-.07-.51-.22M177.33,303.19c-.3-.25-.33-.69-.08-.99.25-.3.69-.33.99-.08.3.25.33.69.08.99h0c-.14.16-.34.25-.53.25-.16,0-.32-.06-.45-.17M174.65,306.91c-.32-.22-.41-.65-.2-.97.21-.32.65-.41.97-.2.32.21.41.65.2.97-.13.21-.36.32-.59.32-.13,0-.27-.04-.38-.11M172.44,310.93c-.35-.17-.49-.59-.32-.94.17-.35.6-.49.94-.32.35.17.49.6.32.94-.12.25-.37.39-.63.39-.1,0-.21-.03-.31-.08M170.72,315.18c-.37-.13-.56-.53-.43-.9.13-.37.53-.56.9-.43.36.13.56.53.42.9-.1.29-.37.46-.66.46-.08,0-.16-.01-.23-.04M169.51,319.6c-.38-.09-.62-.46-.53-.84h0c.09-.38.46-.61.84-.53.38.09.61.46.53.84-.08.33-.36.55-.68.55-.05,0-.1,0-.16-.02M168.83,324.14c-.38-.04-.66-.39-.62-.77.04-.38.39-.66.77-.62.39.04.66.39.62.77-.04.36-.34.63-.7.63-.03,0-.05,0-.08,0M167.99,328.03c0-.39.31-.71.69-.71.39,0,.71.31.71.69,0,.39-.3.71-.69.71h0c-.38,0-.7-.31-.7-.69M168.32,332.68h0c-.05-.38.22-.74.6-.79.39-.05.74.22.79.61.05.38-.22.74-.6.79-.03,0-.06,0-.09,0-.35,0-.65-.26-.69-.61M169.21,337.27c-.1-.38.13-.76.51-.86.37-.1.76.13.85.51.1.38-.13.76-.51.85-.06.02-.12.02-.18.02-.31,0-.6-.21-.68-.53M170.63,341.71c-.14-.36.04-.77.4-.91.36-.14.77.04.91.4.14.36-.04.77-.4.91-.08.03-.17.05-.25.05-.28,0-.55-.17-.65-.45M172.58,345.96h0c-.18-.34-.05-.77.29-.95.34-.18.77-.05.95.29.18.34.05.77-.29.95-.1.06-.22.08-.33.08-.25,0-.49-.14-.62-.37"/>
    <path class="cls-1" d="M173.2,346.58c-.35,0-.68-.19-.84-.51-.12-.22-.15-.48-.07-.72.07-.24.24-.44.46-.56.46-.24,1.04-.07,1.29.39.25.46.07,1.04-.39,1.29-.13.07-.29.11-.45.11ZM173.2,345.18c-.07,0-.15.02-.21.05-.11.06-.19.15-.22.27s-.02.24.03.34c0,0,0,0,0,0,.11.21.41.3.61.19.22-.12.31-.39.19-.61-.08-.15-.24-.24-.4-.24ZM171.29,342.41c-.4,0-.74-.24-.89-.61h0c-.09-.24-.09-.5.02-.73.1-.23.29-.41.53-.5.49-.19,1.04.05,1.23.54.09.24.09.5-.02.73-.1.23-.29.41-.53.5-.12.04-.23.07-.34.07ZM171.29,341.01c-.05,0-.11,0-.16.03-.11.04-.2.13-.25.24-.05.11-.05.23,0,.35h0c.09.22.32.36.59.26.23-.09.35-.35.26-.58-.07-.18-.24-.29-.42-.29ZM169.89,338.05c-.43,0-.81-.29-.92-.71h0c-.13-.51.18-1.03.69-1.16.25-.06.5-.02.72.1.22.13.38.34.44.58.06.25.03.5-.1.72-.13.22-.34.37-.58.44-.07.02-.15.03-.24.03ZM169.45,337.21c.06.24.33.38.55.33.12-.03.22-.1.28-.21.06-.1.08-.22.05-.34-.03-.12-.1-.22-.21-.28-.1-.06-.23-.08-.34-.05-.24.06-.39.31-.33.55h0ZM169.02,333.54c-.47,0-.88-.36-.94-.83h0c-.03-.25.03-.5.19-.71.15-.2.38-.33.63-.36.25-.03.5.03.71.19.2.15.33.38.36.63.07.52-.3,1-.82,1.07-.05,0-.09,0-.13,0ZM169.02,332.14s-.04,0-.06,0c-.12.02-.23.08-.3.17-.07.1-.11.21-.09.33h0c.03.25.27.42.52.39.24-.03.41-.26.38-.51-.02-.12-.08-.23-.17-.3-.08-.06-.18-.09-.28-.09ZM168.7,328.97c-.53,0-.96-.42-.96-.94h0c0-.53.42-.96.94-.97.25.01.5.09.68.27.18.18.28.42.29.67,0,.26-.09.5-.27.68-.18.18-.42.28-.67.28ZM168.24,328.02c0,.25.21.45.45.45.13,0,.24-.05.32-.13.08-.09.13-.2.13-.32,0-.12-.05-.23-.14-.32-.09-.08-.23-.13-.32-.13-.25,0-.45.21-.45.46h0ZM168.91,324.39h-.08s-.02,0-.02,0c-.52-.06-.9-.53-.84-1.05.03-.25.15-.48.35-.64.2-.16.45-.23.7-.21.25.03.48.15.64.35s.23.45.21.7c-.05.49-.46.85-.95.85ZM168.85,323.89h0c.28,0,.47-.17.5-.4.01-.12-.02-.24-.1-.33-.08-.09-.18-.15-.3-.17-.12-.01-.24.02-.33.1-.09.08-.15.18-.17.3-.03.25.15.47.4.5ZM169.67,319.87c-.07,0-.15,0-.21-.03-.25-.06-.46-.21-.59-.42-.14-.22-.18-.47-.12-.72,0-.01,0-.02,0-.03.06-.23.21-.43.42-.56.22-.14.47-.18.72-.12.25.06.46.21.59.42.13.21.18.47.12.72-.1.44-.48.74-.93.74ZM169.22,318.84c-.02.11,0,.22.06.32.06.1.17.17.28.2,0,0,0,0,0,0,.22.05.48-.1.54-.34.03-.12,0-.24-.06-.34-.06-.1-.16-.17-.28-.2-.12-.03-.24,0-.34.06-.1.06-.17.16-.2.28,0,0,0,.01,0,.02ZM170.95,315.47c-.11,0-.22-.02-.32-.06-.49-.18-.75-.72-.58-1.22.18-.49.72-.75,1.22-.58.24.09.43.26.54.49.11.23.12.49.04.73-.14.38-.5.63-.9.63ZM170.95,314.06c-.19,0-.36.12-.43.3-.08.23.04.49.27.58,0,0,0,0,0,0,.22.08.49-.05.58-.27.04-.11.04-.24-.02-.35-.05-.11-.14-.19-.26-.23-.05-.02-.1-.03-.15-.03ZM172.75,311.25c-.14,0-.29-.03-.42-.1,0,0,0,0,0,0-.23-.11-.4-.31-.48-.55s-.06-.5.05-.73c.11-.23.31-.4.55-.48.24-.08.5-.06.73.05.23.11.4.31.48.55.08.24.06.5-.05.73-.16.32-.49.53-.85.53ZM172.55,310.7c.24.12.5.01.61-.2.05-.11.06-.23.02-.34-.04-.12-.12-.21-.23-.26-.11-.05-.23-.06-.34-.02-.12.04-.21.12-.26.23-.05.11-.06.23-.02.35.04.11.12.21.23.26ZM175.04,307.28c-.18,0-.36-.05-.52-.15,0,0,0,0,0,0-.44-.29-.56-.88-.27-1.32.29-.44.88-.56,1.32-.27.44.29.56.88.27,1.32-.17.27-.47.43-.8.43ZM174.79,306.7c.21.13.5.07.63-.13.14-.21.08-.49-.13-.63-.21-.14-.49-.08-.63.13-.14.21-.08.49.13.63ZM177.79,303.61c-.22,0-.44-.08-.62-.23h0c-.4-.34-.45-.94-.11-1.34.17-.19.4-.31.65-.33.25-.02.5.06.69.22.19.16.31.39.33.65.02.24-.05.48-.21.67,0,0-.01.02-.02.02-.18.21-.45.34-.73.34ZM177.79,302.2s-.02,0-.04,0c-.12,0-.23.07-.31.16-.16.19-.14.48.05.64h0c.18.15.47.13.62-.04,0,0,0-.01.01-.02.16-.19.14-.48-.05-.64-.08-.07-.19-.11-.29-.11ZM180.95,300.29c-.27,0-.52-.11-.7-.3-.36-.38-.33-.99.05-1.34.39-.36.99-.34,1.35.05.36.38.33.99-.05,1.35-.18.16-.41.25-.65.25ZM180.95,298.89c-.11,0-.22.04-.31.12-.18.17-.19.46-.02.64h0c.16.18.46.19.64.02.18-.17.19-.46.02-.64-.09-.1-.21-.14-.33-.14ZM184.49,297.37c-.3,0-.59-.15-.77-.39,0,0,0,0,0,0-.31-.43-.22-1.02.21-1.33.2-.15.46-.21.71-.17.25.04.47.17.62.38.31.42.22,1.02-.21,1.33-.17.12-.36.18-.56.18ZM184.12,296.69c.14.19.44.24.63.1.2-.15.25-.43.1-.63-.07-.1-.18-.16-.3-.18-.12-.02-.24.01-.34.08-.2.15-.25.43-.1.63ZM188.35,294.89c-.35,0-.66-.19-.83-.48-.26-.46-.1-1.04.36-1.3.46-.26,1.04-.09,1.3.36.13.22.16.48.09.73-.07.25-.23.45-.45.57-.14.08-.3.12-.46.12ZM188.34,293.49c-.08,0-.15.02-.22.06-.22.12-.29.4-.17.62,0,0,0,0,0,0,.12.21.4.29.62.17.11-.06.18-.16.21-.27.03-.12.02-.24-.04-.35-.08-.15-.24-.23-.4-.23ZM192.47,292.88c-.39,0-.73-.23-.88-.59h0c-.2-.48.03-1.04.51-1.25.49-.2,1.05.03,1.25.51.2.48-.03,1.04-.51,1.25-.12.05-.25.07-.37.07ZM192.05,292.1c.09.22.36.34.6.24.23-.1.34-.36.24-.59-.1-.23-.36-.34-.59-.24-.23.1-.34.36-.24.59h0ZM196.8,291.38c-.42,0-.8-.29-.92-.7h0c-.07-.24-.04-.5.09-.72.12-.22.33-.38.57-.45.25-.07.5-.04.72.09.22.12.38.33.45.57.14.51-.16,1.03-.66,1.17-.09.02-.17.03-.26.03ZM196.8,289.98s-.08,0-.12.02c-.12.03-.21.11-.27.21-.06.1-.07.23-.04.34h0c.07.24.32.38.56.31.24-.07.38-.32.31-.56-.03-.12-.11-.21-.21-.27-.07-.04-.14-.06-.22-.06ZM201.28,290.41c-.47,0-.87-.35-.94-.81-.04-.25.02-.5.17-.7.15-.21.37-.34.62-.38.25-.04.51.02.71.17.2.15.34.37.38.62.04.25-.02.5-.17.71-.15.21-.37.34-.62.38-.04,0-.1.01-.15.01ZM201.28,289s-.05,0-.07,0c-.12.02-.22.08-.3.18-.07.1-.1.22-.08.33h0c.04.24.27.42.51.38.13-.02.23-.08.3-.18.07-.1.1-.22.08-.34-.02-.12-.08-.22-.18-.29-.08-.06-.17-.09-.27-.09ZM210.43,290.09s-.07,0-.08,0c-.52-.04-.92-.51-.87-1.03.02-.26.14-.49.34-.65.19-.16.44-.24.69-.22.52.04.91.5.87,1.03-.04.5-.45.87-.95.87ZM210.38,289.59h.05c.24,0,.43-.18.45-.42.02-.25-.17-.46-.42-.49-.12-.01-.24.03-.33.1-.09.08-.15.19-.16.31-.02.25.16.46.41.49ZM205.87,289.97c-.55,0-.97-.4-.98-.92,0-.25.08-.5.25-.68.17-.19.41-.29.66-.3.26-.01.5.08.68.25.19.17.29.41.3.66,0,.26-.08.5-.26.69-.17.19-.41.29-.66.3ZM205.85,288.57s-.01,0-.02,0c-.12,0-.23.05-.32.14-.08.09-.12.2-.12.32h0c0,.25.21.44.45.44.14,0,.25-.05.33-.14.08-.09.13-.2.12-.33,0-.12-.06-.23-.14-.31-.08-.08-.19-.12-.31-.12Z"/>
    <path class="cls-1" d="M124.5,103.85c0-.39.3-.71.69-.71.39,0,.71.3.71.69,0,.39-.3.71-.69.72h-.01c-.38,0-.69-.31-.7-.69M124.95,108.71c-.06-.38.19-.74.58-.81.38-.06.75.19.81.58.06.38-.19.74-.58.81-.04,0-.08,0-.12,0-.34,0-.63-.24-.69-.59M126.11,113.45c-.12-.37.08-.76.45-.89.37-.12.76.08.89.45.12.37-.08.76-.45.89-.07.02-.15.04-.22.04-.3,0-.57-.19-.67-.49M127.96,117.96c-.17-.35-.03-.77.31-.94.35-.17.77-.03.94.31.17.35.03.77-.31.94-.1.05-.21.08-.31.08-.26,0-.5-.14-.63-.39M130.46,122.14c-.22-.32-.15-.75.17-.98.32-.22.76-.15.98.17.22.32.15.76-.17.98-.12.09-.26.13-.4.13-.22,0-.44-.1-.58-.3M133.54,125.92c-.27-.28-.25-.73.03-.99.28-.27.73-.26.99.03.27.28.25.73-.03.99-.14.13-.31.19-.48.19-.19,0-.37-.07-.51-.22M137.15,129.2c-.31-.24-.36-.68-.12-.99.24-.31.68-.36.99-.12.31.24.36.68.12.99-.14.18-.34.27-.55.27-.15,0-.3-.05-.43-.15M172.91,131.56c-.19-.34-.08-.76.26-.96.34-.19.76-.08.96.26.19.34.08.77-.26.96-.11.06-.23.09-.35.09-.24,0-.48-.13-.61-.35M141.2,131.92c-.34-.19-.46-.62-.26-.96s.62-.46.96-.26c.34.19.46.62.26.96-.13.23-.37.36-.61.36-.12,0-.24-.03-.35-.09M168.56,133.53c-.14-.36.04-.77.4-.91.36-.14.77.04.91.4.14.36-.04.77-.4.91-.08.03-.17.05-.26.05-.28,0-.55-.17-.65-.45M145.62,134c-.36-.14-.54-.54-.41-.91.14-.36.55-.54.91-.4.36.14.54.55.41.91-.11.28-.37.45-.66.45-.08,0-.17-.02-.25-.05M163.97,134.84c-.09-.38.15-.75.53-.84.38-.09.76.15.84.53.09.38-.15.75-.53.84-.05.01-.1.02-.16.02-.32,0-.61-.22-.68-.55M150.29,135.4h0c-.38-.08-.62-.46-.53-.84.08-.38.46-.62.84-.53.38.09.62.46.53.84-.07.33-.36.55-.69.55-.05,0-.1,0-.15-.02M159.23,135.45c-.03-.39.26-.72.65-.75.39-.03.72.26.75.65.03.39-.26.72-.65.75-.02,0-.04,0-.05,0-.36,0-.67-.28-.7-.65M155.11,136.11c-.39-.03-.68-.36-.65-.75.03-.39.36-.68.75-.65.39.03.68.36.65.75-.03.37-.33.65-.7.65-.02,0-.03,0-.05,0"/>
    <path class="cls-1" d="M155.16,136.36s-.05,0-.07,0h0c-.52-.04-.92-.5-.88-1.02.04-.52.5-.91,1.02-.88.53.04.92.5.88,1.02-.04.5-.45.88-.95.88ZM155.16,134.95c-.23,0-.43.18-.45.42-.02.25.17.47.42.48,0,0,0,0,0,0l-.02.25.05-.25c.24,0,.43-.18.45-.42.02-.25-.17-.46-.42-.48-.01,0-.02,0-.03,0ZM159.93,136.35c-.49,0-.91-.39-.95-.88-.02-.25.06-.5.23-.69.17-.19.4-.31.65-.33.25-.02.5.06.69.23s.31.4.33.65c.02.25-.06.5-.23.69-.17.19-.4.31-.65.33,0,0-.07,0-.07,0ZM159.93,134.94s-.02,0-.04,0c-.12,0-.23.06-.31.15-.08.09-.12.21-.11.33h0c.02.23.22.42.45.42.15-.01.27-.07.34-.16.08-.09.12-.21.11-.33,0-.12-.06-.23-.16-.31-.08-.07-.19-.11-.29-.11ZM150.44,135.67c-.07,0-.14,0-.21-.02-.25-.05-.46-.2-.59-.42-.14-.21-.18-.47-.13-.72.11-.51.62-.84,1.14-.73.51.12.84.63.72,1.14-.1.43-.49.75-.93.75ZM150.44,134.26c-.21,0-.4.14-.44.36-.03.12,0,.24.06.34.06.1.17.17.28.2,0,0,0,0,0,0,.03,0,.06,0,.09,0,.21,0,.4-.15.44-.36.05-.24-.1-.48-.34-.54-.03,0-.06-.01-.1-.01ZM164.65,135.63c-.44,0-.83-.31-.93-.74-.06-.25-.01-.5.12-.72.14-.21.35-.36.59-.42.25-.06.5-.02.72.12.22.14.37.35.42.6.06.25.01.5-.12.72-.14.22-.35.37-.6.42-.06.02-.14.02-.21.02ZM164.65,134.23s-.07,0-.1.01c-.12.03-.22.1-.28.2s-.08.22-.06.34h0c.05.24.34.39.54.34.12-.03.22-.1.28-.2.06-.1.08-.22.06-.34-.03-.12-.1-.22-.2-.28-.07-.05-.15-.07-.24-.07ZM145.87,134.29c-.12,0-.23-.02-.34-.07-.49-.19-.73-.74-.55-1.23.09-.24.27-.43.5-.53.23-.1.49-.11.73-.02.49.19.74.74.55,1.23-.14.37-.5.61-.89.61ZM145.87,132.89c-.18,0-.35.11-.42.29-.04.11-.04.24,0,.35.05.11.14.19.25.24,0,0,0,0,0,0,.22.09.49-.03.58-.26.09-.23-.03-.5-.26-.58-.05-.02-.11-.03-.16-.03ZM169.21,134.23c-.4,0-.74-.24-.89-.61-.09-.23-.09-.49.01-.72.1-.23.29-.42.53-.51.49-.19,1.04.05,1.23.54.19.49-.05,1.04-.54,1.23-.11.04-.23.07-.35.07ZM169.21,132.83c-.05,0-.11,0-.16.03-.11.04-.2.13-.25.24-.05.11-.05.23,0,.34,0,0,0,0,0,0,.09.23.36.35.59.26.23-.09.35-.35.26-.59-.07-.18-.24-.29-.42-.29ZM141.55,132.26c-.16,0-.32-.04-.47-.12h0c-.46-.26-.62-.84-.36-1.3.13-.22.33-.38.58-.45.25-.07.5-.04.72.09.22.12.38.33.45.57s.04.5-.09.72c-.17.3-.48.48-.83.48ZM141.33,131.7c.22.12.5.04.62-.17.06-.11.08-.23.04-.34s-.11-.21-.21-.27c-.1-.06-.23-.08-.34-.04-.12.03-.21.11-.27.21-.12.22-.05.49.17.62ZM173.52,132.16c-.34,0-.66-.18-.83-.48h0c-.26-.45-.1-1.04.35-1.3.45-.26,1.04-.1,1.3.35.26.46.1,1.04-.35,1.3-.15.08-.31.13-.48.13ZM173.12,131.44c.12.21.4.29.62.17.21-.12.29-.4.16-.62-.12-.21-.4-.29-.62-.17-.22.12-.29.4-.17.62h0ZM137.58,129.6c-.21,0-.42-.07-.59-.2h0c-.41-.32-.49-.92-.16-1.34.16-.2.38-.33.63-.36.26-.03.5.04.7.2.41.32.49.92.16,1.34-.18.23-.45.37-.75.37ZM137.31,129c.2.15.49.11.63-.08.08-.1.11-.21.09-.33-.01-.12-.07-.23-.17-.3-.1-.08-.21-.11-.33-.09-.12.01-.23.08-.3.17-.15.2-.12.48.08.63h0ZM134.05,126.39c-.27,0-.51-.11-.69-.3-.17-.18-.27-.43-.26-.68,0-.25.11-.49.3-.67.18-.18.41-.27.68-.26.25,0,.49.11.67.3.36.38.34.98-.04,1.34-.18.17-.41.26-.66.26ZM134.05,124.98c-.12,0-.23.04-.31.12-.09.08-.14.19-.14.32,0,.12.04.24.12.32,0,0,0,0,0,0,.16.17.46.18.64.02.18-.17.19-.46.02-.64-.08-.09-.2-.14-.32-.14h-.01ZM131.03,122.69c-.31,0-.6-.15-.78-.41-.15-.21-.2-.46-.16-.7.04-.25.18-.47.39-.62.43-.3,1.03-.2,1.33.23.15.21.2.46.16.71-.04.25-.18.47-.39.62-.16.11-.35.17-.55.17ZM131.03,121.29c-.09,0-.18.03-.26.08-.1.07-.17.18-.19.3-.02.12,0,.24.08.33,0,0,0,0,0,0,.14.2.43.25.63.11.1-.07.17-.17.19-.29s0-.24-.07-.34c-.09-.13-.23-.19-.37-.19ZM128.59,118.6c-.36,0-.69-.2-.85-.53h0c-.11-.23-.13-.48-.05-.73.08-.24.25-.44.48-.55.47-.24,1.04-.04,1.28.43.11.23.13.48.05.73-.08.24-.25.44-.48.55-.13.07-.28.1-.43.1ZM128.18,117.84c.11.22.39.31.61.2.11-.05.19-.15.23-.26s.03-.24-.02-.34c-.11-.22-.38-.32-.61-.2-.22.11-.31.38-.2.61h0ZM126.77,114.18c-.41,0-.78-.26-.9-.66-.08-.24-.06-.5.05-.72.12-.23.31-.4.55-.48.5-.16,1.04.11,1.2.61.08.24.06.5-.06.73-.12.23-.31.4-.55.47-.1.03-.2.05-.29.05ZM126.77,112.78s-.09,0-.14.02c-.11.04-.21.12-.26.23-.05.11-.06.23-.03.34,0,0,0,0,0,0,.07.23.3.37.57.29.11-.04.21-.12.26-.23.05-.11.06-.23.03-.34-.06-.19-.24-.31-.43-.31ZM125.64,109.55c-.47,0-.86-.33-.94-.79-.04-.25.02-.5.16-.71.15-.21.37-.34.62-.39.25-.04.5.02.71.16.21.15.34.37.39.62.04.25-.02.5-.16.71-.15.21-.37.34-.62.39-.05,0-.11.01-.16.01ZM125.64,108.14s-.05,0-.08,0c-.12.02-.22.08-.29.18-.07.1-.1.22-.08.34h0c.04.24.27.41.52.37.12-.02.22-.08.29-.18.07-.1.1-.22.08-.34-.02-.12-.08-.22-.18-.29-.08-.06-.17-.08-.26-.08ZM125.22,104.79c-.53,0-.96-.42-.97-.93h0c0-.25.09-.5.27-.68.18-.18.41-.29.67-.29.26,0,.49.09.68.27.18.18.29.41.29.67,0,.25-.09.49-.27.68-.18.18-.41.29-.67.29ZM125.2,103.39h0c-.12,0-.23.05-.32.14-.08.09-.13.2-.13.32h0c0,.25.21.44.45.44.26,0,.46-.21.45-.46,0-.12-.05-.23-.14-.32-.08-.08-.2-.13-.31-.13Z"/>
    <path class="cls-1" d="M418.6,76.8c-.38-.06-.64-.43-.58-.81.07-.38.43-.64.81-.58.38.06.64.43.58.81-.06.34-.36.59-.69.59-.04,0-.08,0-.12-.01M417.14,81.44c-.36-.15-.53-.55-.39-.91.14-.36.55-.54.91-.39.36.14.53.55.39.91-.11.28-.38.44-.65.44-.09,0-.18-.02-.26-.05M414.73,85.67c-.32-.22-.41-.65-.19-.97.22-.32.65-.41.98-.19.32.22.41.65.19.98-.14.2-.36.31-.58.31-.13,0-.27-.04-.39-.12M411.49,89.3c-.27-.28-.26-.72.02-.99.28-.27.72-.26.99.02.27.28.26.72-.02.99-.14.13-.31.2-.49.2-.18,0-.37-.07-.51-.21M407.55,92.17c-.2-.33-.1-.76.23-.97s.76-.1.97.23c.2.33.1.76-.23.97-.12.07-.24.11-.37.11-.23,0-.46-.12-.6-.33M384.56,92.93c-.34-.19-.46-.62-.27-.95.19-.34.62-.46.96-.27.34.19.46.62.27.96-.13.23-.37.36-.61.36-.12,0-.23-.03-.34-.09M403.1,94.14c-.13-.36.06-.77.43-.9.37-.13.77.06.9.43.13.37-.06.77-.43.9-.08.03-.16.04-.23.04-.29,0-.56-.18-.66-.47M389.18,94.9c-.37-.11-.58-.51-.47-.88.11-.37.51-.58.88-.46.37.11.58.51.47.88-.09.3-.37.5-.67.5-.07,0-.14,0-.2-.03M398.33,95.12c-.05-.38.22-.74.61-.79.38-.05.74.22.79.61.05.38-.22.74-.61.79-.03,0-.06,0-.09,0-.35,0-.65-.26-.69-.61M394.1,95.85h0c-.39-.03-.67-.37-.64-.76.03-.39.37-.67.76-.64.39.03.67.37.64.76-.03.37-.34.64-.7.64-.02,0-.04,0-.06,0"/>
    <path class="cls-1" d="M394.16,96.1s-.07,0-.08,0h0c-.52-.04-.91-.51-.87-1.03.04-.52.49-.92,1.03-.87.52.04.91.51.87,1.03-.04.5-.45.87-.95.87ZM394.16,94.69c-.23,0-.43.18-.45.42-.02.25.17.47.41.49h0l-.02.25.06-.25c.24,0,.43-.18.45-.42.02-.25-.17-.47-.42-.49-.01,0-.02,0-.04,0ZM399.03,95.99c-.48,0-.88-.36-.94-.83h0c-.03-.25.04-.5.19-.7s.38-.33.63-.36c.25-.03.5.04.71.19.2.16.33.38.36.63.03.25-.04.5-.19.71-.16.2-.38.33-.63.36-.03,0-.08,0-.12,0ZM398.58,95.09c.03.23.22.4.45.4.18-.02.28-.08.36-.18.07-.1.11-.21.09-.33-.01-.12-.08-.23-.17-.3-.1-.07-.22-.11-.34-.09-.12.02-.23.08-.3.17-.07.1-.11.21-.09.33h0ZM389.39,95.18h0c-.09,0-.19-.01-.28-.04-.24-.07-.44-.24-.56-.46-.12-.22-.14-.48-.07-.73.07-.24.24-.44.46-.56s.48-.14.73-.07c.24.07.44.24.56.46.12.23.15.48.07.73-.12.4-.49.67-.91.67ZM389.38,93.78c-.07,0-.14.02-.21.05-.11.06-.18.15-.22.27-.04.12-.02.24.03.35.06.11.15.18.27.22,0,0,0,0,0,0,.04.01.07.02.13.02.2,0,.37-.13.43-.32.04-.12.02-.24-.03-.35-.06-.11-.15-.18-.27-.22-.04-.01-.09-.02-.13-.02ZM403.76,94.86c-.4,0-.76-.25-.9-.63-.08-.24-.07-.5.04-.73.11-.23.3-.4.54-.49.49-.18,1.04.08,1.21.58.18.5-.08,1.04-.58,1.22-.11.04-.21.05-.32.05ZM403.76,93.46s-.1,0-.15.03c-.11.04-.21.12-.26.23s-.06.23-.02.34h0c.08.23.34.36.58.28.23-.08.35-.34.27-.58-.07-.19-.24-.3-.43-.3ZM384.91,93.27c-.16,0-.32-.04-.47-.12h0c-.22-.12-.38-.33-.45-.57-.07-.25-.04-.5.09-.72.12-.22.33-.38.57-.45.24-.07.5-.04.72.09.46.26.62.84.37,1.29-.17.3-.49.49-.83.49ZM384.69,92.71c.22.12.5.04.62-.17.12-.22.04-.49-.18-.62-.11-.06-.23-.07-.34-.04-.12.03-.21.11-.27.22-.06.1-.07.23-.04.34s.11.21.21.27h0ZM408.15,92.76c-.33,0-.63-.17-.81-.45h0c-.27-.45-.14-1.03.31-1.31.22-.13.48-.17.72-.12.25.06.46.21.59.43.13.22.18.47.12.72-.06.25-.21.46-.43.59-.15.09-.32.14-.5.14ZM407.77,92.04c.13.2.42.27.62.15.1-.06.18-.16.2-.28.03-.12,0-.24-.06-.34-.06-.1-.16-.17-.28-.2-.12-.03-.24,0-.34.06-.21.13-.28.41-.15.62h0ZM411.99,89.77c-.26,0-.51-.11-.69-.29,0,0,0,0,0,0-.18-.18-.27-.42-.27-.68,0-.25.11-.49.29-.67.18-.18.43-.29.68-.27.25,0,.49.11.67.29.36.38.35.98-.02,1.35-.18.17-.41.27-.66.27ZM411.67,89.13c.17.17.47.18.64.01.18-.17.18-.46.01-.64-.08-.09-.2-.14-.32-.14-.12,0-.24.04-.32.13-.09.08-.14.2-.14.32,0,.12.04.23.13.32h0ZM415.12,86.04c-.19,0-.37-.06-.53-.16h0c-.44-.29-.55-.89-.26-1.32.29-.44.89-.55,1.32-.26.43.29.55.89.26,1.32-.18.26-.48.42-.79.42ZM414.87,85.46c.21.14.49.08.63-.12.14-.21.08-.49-.12-.63-.2-.14-.49-.08-.63.12-.14.21-.08.49.12.63ZM417.4,81.74c-.12,0-.24-.02-.35-.07,0,0,0,0,0,0-.49-.2-.72-.75-.53-1.24.09-.24.28-.42.51-.52.23-.1.49-.1.73,0,.23.09.42.27.52.51.1.23.1.49,0,.73-.15.36-.49.6-.89.6ZM417.23,81.21c.24.09.5-.03.59-.25.04-.11.04-.23,0-.35-.05-.11-.13-.2-.25-.24-.11-.05-.24-.05-.35,0-.11.05-.2.14-.24.25-.09.23.02.49.25.59ZM418.71,77.06s-.1,0-.15-.01c0,0,0,0,0,0-.52-.09-.87-.58-.78-1.1.09-.52.57-.86,1.1-.78.25.04.47.18.62.39s.21.46.16.71c-.08.46-.47.79-.94.79ZM418.64,76.55c.25.04.48-.13.52-.37.02-.12,0-.24-.08-.34-.07-.1-.17-.16-.29-.18-.25-.04-.48.13-.52.37-.04.24.13.48.37.52Z"/>
    <path class="cls-1" d="M474.02,46.3c-.04-.39.23-.73.62-.78.38-.04.73.23.78.62.04.38-.23.73-.62.78-.03,0-.05,0-.08,0-.36,0-.66-.27-.7-.62M474.85,50.96c-.09-.38.14-.76.51-.85s.76.14.85.51c.09.38-.14.76-.51.85-.06.01-.11.02-.17.02-.32,0-.6-.21-.68-.53M476.28,55.46c-.14-.36.04-.77.4-.91.36-.14.77.04.91.4.14.36-.04.77-.4.91-.08.03-.17.05-.26.05-.28,0-.55-.17-.65-.45M478.3,59.74h0c-.19-.34-.07-.77.27-.96.34-.19.77-.07.96.27.19.34.06.77-.27.95-.11.06-.23.09-.34.09-.25,0-.49-.13-.61-.36M480.87,63.72h0c-.23-.31-.17-.75.14-.98.31-.23.75-.17.98.14.23.31.17.75-.15.98-.13.09-.27.14-.42.14-.21,0-.43-.1-.56-.28M483.94,67.31c-.27-.28-.26-.72.01-.99.28-.27.72-.26.99.01.27.28.26.72-.01.99-.14.13-.31.2-.49.2s-.37-.07-.5-.21M487.45,70.48h0c-.31-.24-.36-.68-.11-.99.24-.31.68-.36.99-.12.31.24.36.68.12.99-.14.18-.34.27-.55.27-.15,0-.31-.05-.44-.15M530.42,70.72c-.23-.31-.18-.75.13-.99.31-.24.75-.18.98.13.23.31.18.75-.13.99-.13.1-.28.14-.43.14-.21,0-.42-.09-.56-.27M491.34,73.16c-.33-.2-.44-.63-.24-.96.2-.33.63-.44.96-.25.33.2.44.63.24.96-.13.22-.37.34-.6.34-.12,0-.25-.03-.36-.1M526.51,73.2c-.19-.33-.08-.76.26-.96.34-.19.77-.08.96.26.19.34.08.77-.26.96-.11.06-.23.09-.35.09-.24,0-.48-.13-.61-.36M495.56,75.31c-.36-.15-.52-.57-.37-.92.15-.36.57-.52.92-.37.36.15.52.56.37.92-.11.27-.37.43-.65.43-.09,0-.19-.02-.28-.06M522.3,75.15c-.15-.36.03-.77.39-.92h0c.36-.15.77.03.92.38.15.36-.03.77-.38.92-.09.03-.18.05-.27.05-.28,0-.54-.16-.65-.43M500.02,76.87h0c-.37-.1-.59-.49-.49-.86.1-.37.49-.59.86-.49.37.1.59.49.49.87-.09.31-.37.51-.68.51-.06,0-.13,0-.19-.03M517.87,76.52c-.1-.38.13-.76.5-.86.37-.1.76.13.86.5.1.37-.13.76-.5.85-.06.02-.12.02-.18.02-.31,0-.6-.21-.68-.52M504.65,77.84c-.38-.05-.65-.41-.6-.79.05-.38.41-.65.79-.6.38.05.65.41.6.79-.05.35-.35.61-.69.61-.03,0-.07,0-.1,0M513.3,77.3c-.05-.38.23-.74.61-.78.38-.05.73.23.78.61.05.38-.23.73-.61.78-.03,0-.06,0-.09,0-.35,0-.65-.26-.69-.62M509.36,78.19c-.39,0-.7-.32-.7-.71,0-.39.32-.7.71-.7.39,0,.7.32.7.71,0,.39-.32.7-.7.7h0Z"/>
    <path class="cls-1" d="M509.37,78.44h0c-.25,0-.49-.1-.67-.29-.18-.18-.28-.42-.27-.68,0-.52.43-.97.96-.94.25,0,.49.1.67.28.18.18.28.42.27.67,0,.52-.43.95-.95.95ZM509.36,77.94h0c.25,0,.45-.2.45-.45,0-.12-.04-.23-.13-.32-.08-.09-.2-.13-.32-.14h0c-.25,0-.45.2-.45.45,0,.12.04.24.13.32.08.09.2.13.32.14ZM514,78.17c-.48,0-.88-.36-.94-.84h0c-.07-.52.31-1,.83-1.06.53-.06,1,.31,1.06.83.03.25-.04.5-.19.7-.16.2-.38.33-.64.36-.03,0-.07,0-.12,0ZM514,76.76s-.04,0-.05,0c-.25.03-.43.26-.39.5h0c.03.23.22.4.45.4.18-.02.28-.08.36-.17.07-.09.11-.21.09-.33-.03-.23-.22-.4-.45-.4ZM504.75,78.1s-.09,0-.13-.01c-.25-.04-.48-.17-.63-.37-.15-.2-.22-.45-.18-.7.03-.25.16-.47.37-.63.2-.15.45-.22.71-.18.52.07.88.55.81,1.07-.07.47-.47.82-.94.82ZM504.75,76.69c-.1,0-.19.03-.27.09-.1.07-.16.18-.17.3-.02.12.01.24.08.33.07.1.18.16.3.18,0,0,0,0,0,0,.24.03.47-.14.51-.39.03-.25-.14-.48-.38-.51-.02,0-.04,0-.06,0ZM518.55,77.3c-.44,0-.81-.29-.92-.71-.06-.25-.03-.5.1-.72s.34-.38.58-.44c.51-.13,1.03.18,1.16.68.06.25.03.5-.1.72-.13.22-.34.37-.58.44-.07.02-.15.03-.24.03ZM518.55,75.89s-.08,0-.11.01c-.12.03-.22.1-.28.21-.06.1-.08.23-.05.34,0,0,0,0,0,0,.06.24.34.38.54.32.12-.03.22-.1.28-.21.06-.1.08-.23.05-.34-.05-.2-.24-.34-.44-.34ZM500.21,77.15c-.07,0-.15,0-.22-.03-.01,0-.02,0-.03,0-.51-.14-.8-.67-.66-1.17.14-.5.67-.8,1.17-.66.51.14.81.67.67,1.17-.12.41-.49.7-.92.7ZM500.07,76.63s.01,0,.02,0c.25.07.49-.08.56-.31.07-.24-.08-.49-.32-.56-.24-.07-.49.07-.56.31-.06.23.07.48.3.55ZM522.95,75.84c-.39,0-.73-.23-.88-.59-.1-.24-.1-.5,0-.73.1-.23.28-.42.52-.51.48-.19,1.04.04,1.24.52.2.49-.04,1.04-.52,1.24-.12.05-.24.07-.36.07ZM522.95,74.43c-.06,0-.11.01-.17.03-.11.05-.2.13-.25.24-.05.11-.05.24,0,.35h0c.09.23.37.33.59.25.23-.09.34-.36.25-.59-.07-.17-.24-.28-.42-.28ZM495.83,75.62c-.12,0-.25-.02-.37-.07,0,0,0,0,0,0-.23-.1-.41-.29-.51-.52-.09-.24-.09-.5,0-.73.1-.24.29-.42.52-.51.24-.09.49-.09.73.01.24.1.42.29.51.52.09.24.09.49,0,.73-.15.35-.49.58-.88.58ZM495.65,75.08c.25.1.5-.02.6-.24.05-.11.05-.23,0-.34-.04-.11-.13-.2-.24-.25-.11-.05-.23-.05-.34,0-.11.04-.2.13-.25.24-.05.11-.05.23,0,.35.04.11.13.2.24.25ZM527.12,73.81c-.34,0-.66-.18-.83-.48-.13-.22-.16-.48-.09-.72.07-.25.22-.45.45-.58.46-.26,1.04-.1,1.3.35.13.22.16.48.09.72-.07.25-.23.45-.45.58-.14.08-.3.13-.47.13ZM527.12,72.4c-.08,0-.15.02-.23.06-.1.06-.18.16-.21.27-.03.12-.02.24.04.34h0c.12.21.41.29.61.17.11-.06.18-.16.21-.28.03-.12.02-.24-.04-.34-.08-.15-.24-.23-.39-.23ZM491.7,73.51c-.17,0-.34-.05-.49-.13h0c-.22-.13-.37-.34-.44-.58-.06-.25-.03-.5.1-.72.13-.22.34-.37.59-.44.25-.06.5-.02.72.1.22.13.37.34.44.58s.03.5-.1.72c-.17.29-.48.47-.82.47ZM491.7,72.11s-.07,0-.11.01c-.12.03-.22.1-.28.21-.06.1-.08.22-.05.34.03.12.1.22.21.28h0c.2.12.5.05.62-.16.06-.1.08-.22.05-.34s-.1-.22-.21-.28c-.07-.04-.15-.06-.23-.06ZM530.98,71.24c-.3,0-.58-.14-.76-.37,0,0,0,0,0,0-.32-.42-.24-1.02.18-1.33.2-.16.46-.22.71-.19.25.03.47.16.63.37.32.42.24,1.02-.18,1.33-.17.13-.37.19-.58.19ZM530.62,70.56c.15.19.45.23.63.08.2-.15.24-.44.08-.63-.07-.1-.18-.16-.3-.17-.12-.02-.24.02-.34.09-.2.15-.24.44-.09.63ZM487.88,70.88c-.22,0-.42-.07-.59-.21-.2-.16-.33-.38-.35-.64-.03-.25.04-.5.2-.7.16-.2.38-.33.63-.36.25-.03.5.04.7.2.41.33.48.93.16,1.34-.18.23-.46.36-.75.36ZM487.88,69.48s-.04,0-.05,0c-.12.01-.23.07-.3.17-.08.1-.11.21-.1.33.01.12.07.23.17.3h0c.18.15.48.12.63-.07.15-.19.12-.48-.08-.64-.08-.06-.18-.1-.28-.1ZM484.44,67.78c-.26,0-.51-.1-.68-.29-.37-.38-.36-.98.02-1.35.38-.37.98-.36,1.35.02.37.38.36.98-.02,1.35-.18.17-.42.27-.67.27ZM484.44,66.37c-.11,0-.23.04-.32.13-.18.17-.18.46,0,.64,0,0,0,0,0,0,.16.17.47.17.64,0,.18-.17.18-.46,0-.64-.09-.09-.21-.14-.32-.14ZM481.43,64.25c-.3,0-.58-.14-.76-.38h0c-.15-.21-.22-.46-.18-.71.04-.25.17-.47.38-.62.2-.15.45-.22.7-.18.25.04.48.17.63.37.31.42.23,1.02-.2,1.33-.17.12-.36.19-.57.19ZM481.07,63.57c.15.19.43.24.63.09.2-.15.24-.43.09-.63-.07-.1-.18-.16-.3-.18-.12-.01-.24.01-.33.08-.1.07-.16.18-.18.3-.02.12.01.24.08.34h0ZM478.92,60.35c-.35,0-.67-.19-.83-.49h0c-.25-.46-.09-1.04.37-1.29.46-.25,1.04-.09,1.3.37.25.46.09,1.04-.37,1.29-.14.08-.3.12-.46.12ZM478.91,58.95c-.07,0-.15.02-.22.06-.22.12-.29.4-.17.61h0c.12.21.4.3.61.18.22-.12.3-.4.18-.61-.08-.15-.24-.23-.4-.23ZM476.94,56.16c-.4,0-.74-.24-.89-.6h0c-.09-.24-.09-.5.01-.73.1-.23.29-.41.52-.5.48-.19,1.04.05,1.23.54.19.49-.05,1.04-.54,1.24-.11.04-.23.06-.35.06ZM476.94,54.76c-.06,0-.11,0-.17.03-.11.04-.2.13-.25.24-.05.11-.05.23,0,.35h0c.09.23.37.34.59.26.23-.09.35-.35.26-.59-.07-.18-.24-.29-.42-.29ZM475.53,51.74c-.44,0-.82-.3-.92-.72t0,0c-.12-.51.19-1.03.7-1.15.51-.12,1.03.18,1.15.7.13.51-.19,1.03-.69,1.15-.08.02-.15.03-.23.03ZM475.09,50.9c.06.24.31.39.55.33.24-.06.39-.31.33-.55-.06-.24-.31-.39-.55-.33-.24.06-.39.31-.33.55ZM474.72,47.18c-.49,0-.89-.36-.95-.85-.03-.25.04-.5.2-.7.16-.2.39-.32.64-.35.26-.03.5.04.7.2.2.16.32.39.35.64.03.25-.04.5-.2.7s-.39.32-.64.35c-.03,0-.07,0-.1,0ZM474.72,45.77s-.03,0-.05,0c-.12.01-.23.07-.3.17-.08.09-.11.21-.1.33h0c.03.23.22.4.45.4.17-.02.28-.08.35-.17.08-.09.11-.21.1-.33-.01-.12-.07-.23-.17-.3-.08-.06-.18-.1-.28-.1Z"/>
    <path class="cls-1" d="M256.6,99.41c-.18-.34-.05-.77.3-.95.34-.18.77-.04.95.3.18.34.05.77-.3.95-.1.05-.22.08-.32.08-.25,0-.5-.14-.62-.38M258.23,103.55c-.1-.37.11-.76.49-.86.37-.1.76.11.86.49.1.37-.11.76-.49.86-.06.02-.13.03-.19.03-.31,0-.59-.2-.68-.51M258.96,107.93c-.02-.39.27-.72.66-.74.39-.02.72.27.74.66.02.39-.27.72-.66.74h-.04c-.37,0-.68-.29-.7-.66M259.34,113.17c-.38-.06-.65-.42-.59-.8.06-.38.42-.65.8-.59.38.06.65.42.59.8-.05.35-.35.59-.69.59-.04,0-.07,0-.11,0M258.03,117.57c-.36-.14-.54-.54-.41-.91.14-.36.54-.54.91-.41.36.14.54.54.41.91-.11.28-.37.45-.66.45-.08,0-.17-.01-.25-.05M255.82,121.61c-.33-.21-.42-.65-.21-.97.21-.33.64-.42.97-.21.33.21.42.65.21.97-.13.21-.36.32-.59.32-.13,0-.26-.04-.38-.11M220.23,123.05c-.24-.31-.19-.75.12-.99.3-.24.75-.19.99.12.24.31.18.75-.12.99-.13.1-.28.15-.43.15-.21,0-.41-.09-.55-.27M252.82,125.09c-.27-.28-.27-.72,0-.99.27-.28.72-.28.99,0,.27.27.27.72,0,.99-.14.14-.32.2-.5.2s-.36-.07-.5-.2M223.54,126.45c-.3-.25-.34-.69-.09-.99.25-.3.69-.34.99-.09.3.25.34.69.09.99-.14.17-.34.25-.54.25-.16,0-.32-.05-.45-.16M249.15,127.85c-.21-.33-.12-.76.21-.97.33-.21.76-.12.97.21.21.33.12.76-.21.97-.12.08-.25.11-.38.11-.23,0-.46-.11-.59-.32M227.48,129.08c-.34-.18-.48-.6-.3-.95.18-.34.6-.48.95-.3s.48.61.3.95c-.13.24-.37.38-.62.38-.11,0-.22-.03-.33-.08M244.98,129.79c-.14-.36.05-.77.41-.91.36-.14.77.05.91.41.14.36-.05.77-.41.9-.08.03-.17.05-.25.05-.28,0-.55-.17-.66-.45M231.89,130.83c-.37-.1-.59-.49-.49-.86.1-.37.49-.59.86-.49.37.1.59.49.49.87-.09.31-.37.51-.68.51-.06,0-.13,0-.19-.03M240.5,130.82c-.06-.38.2-.74.59-.8.38-.06.74.2.8.59.06.38-.2.74-.59.8-.04,0-.07,0-.11,0-.34,0-.64-.25-.69-.6M236.56,131.62h0c-.39-.02-.68-.36-.66-.74.02-.39.36-.68.74-.66.39.02.68.36.66.74-.02.37-.33.66-.7.66h-.04"/>
    <path class="cls-1" d="M236.61,131.87s-.06,0-.06,0c-.25-.02-.49-.13-.66-.32-.17-.19-.25-.44-.23-.69.01-.25.13-.48.32-.65.19-.17.44-.26.69-.24.25.02.49.13.66.32.17.19.25.44.24.69-.03.5-.45.89-.95.89ZM236.57,131.37h.04c.24,0,.43-.19.45-.42,0-.12-.03-.24-.11-.33-.08-.09-.19-.14-.31-.15-.12,0-.24.03-.33.11-.09.08-.14.19-.15.31,0,.12.03.24.11.33.08.09.19.14.3.15ZM241.19,131.66c-.46,0-.87-.35-.94-.81h0c-.04-.25.02-.5.17-.71.15-.21.37-.34.62-.38.25-.04.5.02.71.17.2.15.34.37.38.62.04.25-.02.5-.17.71-.15.21-.37.34-.62.38-.04,0-.09.01-.15.01ZM241.2,130.26s-.05,0-.07,0c-.12.02-.22.08-.3.18-.07.1-.1.22-.08.34h0c.04.24.27.42.51.38.13-.02.23-.08.3-.18s.1-.22.08-.34c-.02-.12-.08-.22-.18-.3-.08-.06-.17-.09-.27-.09ZM232.08,131.11c-.08,0-.17-.01-.26-.04t0,0c-.25-.07-.45-.23-.57-.45-.12-.22-.16-.48-.09-.72.07-.25.23-.45.45-.57.22-.12.48-.16.72-.09.51.14.8.67.66,1.17-.12.41-.49.7-.92.7ZM231.96,130.59c.26.07.49-.08.56-.31.07-.24-.07-.49-.31-.56-.12-.03-.24-.02-.34.04-.11.06-.18.16-.22.27-.03.12-.02.24.04.34.06.1.16.18.27.21ZM245.64,130.49c-.39,0-.75-.25-.89-.61h0c-.19-.49.06-1.04.55-1.23.49-.19,1.04.07,1.23.56.18.49-.07,1.04-.56,1.23-.11.04-.22.06-.34.06ZM245.22,129.7c.09.23.34.36.58.26.23-.09.35-.35.27-.58-.09-.23-.35-.35-.58-.26-.23.09-.35.35-.26.58h0ZM227.81,129.42c-.15,0-.3-.04-.44-.11h0c-.46-.24-.64-.82-.4-1.28.24-.47.82-.64,1.29-.4.23.12.39.32.47.56.08.24.05.5-.07.73-.16.31-.49.51-.84.51ZM227.81,128.01c-.16,0-.32.09-.4.24-.12.22-.03.49.19.61h0c.22.12.5.02.61-.19.06-.11.07-.23.03-.35s-.11-.21-.22-.26c-.07-.04-.14-.05-.21-.05ZM249.74,128.43c-.33,0-.62-.16-.8-.44-.14-.21-.18-.47-.13-.71.05-.25.2-.46.42-.6.21-.14.47-.19.72-.13.25.05.46.2.6.41.14.21.18.47.13.72-.05.25-.2.46-.42.6-.15.1-.33.15-.52.15ZM249.74,127.02c-.09,0-.17.02-.24.07-.1.07-.17.17-.2.29-.02.12,0,.24.06.34h0c.13.2.42.26.62.14.1-.07.17-.17.2-.29.03-.12,0-.24-.06-.34s-.17-.17-.28-.2c-.03,0-.06-.01-.1-.01ZM223.99,126.87c-.22,0-.44-.08-.61-.22-.4-.33-.46-.94-.13-1.34.34-.4.94-.46,1.34-.12.4.34.46.94.12,1.34-.18.22-.45.34-.73.34ZM223.99,125.46c-.13,0-.26.06-.35.16-.16.19-.13.48.06.64,0,0,0,0,0,0,.1.08.21.1.29.1.14,0,.26-.06.35-.16.16-.19.13-.48-.06-.64-.08-.07-.19-.1-.29-.1ZM253.32,125.54c-.25,0-.49-.1-.67-.28h0c-.37-.37-.37-.98,0-1.35.18-.18.42-.28.67-.28h0c.25,0,.49.1.67.28.37.37.37.97,0,1.35-.18.18-.42.28-.67.28ZM253,124.91c.17.17.47.17.64,0,.17-.18.17-.46,0-.64-.09-.09-.2-.13-.32-.13h0c-.12,0-.23.05-.32.13-.18.18-.18.46,0,.64ZM220.78,123.57c-.3,0-.57-.13-.75-.36-.16-.2-.23-.45-.2-.7.03-.25.16-.48.36-.64.2-.16.45-.23.7-.2.25.03.48.16.63.36.32.41.25,1.01-.16,1.34-.17.13-.37.2-.59.2ZM220.78,122.17c-.1,0-.2.03-.28.1-.1.07-.16.18-.17.3-.01.12.02.24.09.33,0,0,0,0,0,0,.15.19.44.23.63.08.2-.15.23-.44.08-.64-.07-.09-.18-.15-.3-.17-.02,0-.04,0-.06,0ZM256.2,121.97c-.18,0-.36-.05-.52-.15,0,0,0,0,0,0-.44-.29-.57-.88-.28-1.32.28-.44.87-.57,1.32-.28.21.14.36.35.42.6.05.25,0,.5-.13.72-.18.27-.47.43-.8.43ZM255.96,121.4c.21.13.5.07.63-.13.07-.1.09-.22.06-.34-.02-.12-.1-.22-.2-.29-.21-.14-.49-.07-.63.13-.14.21-.08.49.13.63ZM258.28,117.87c-.12,0-.23-.02-.34-.06,0,0,0,0,0,0-.49-.19-.74-.74-.55-1.23.09-.24.27-.43.5-.53.23-.1.49-.11.73-.02.49.19.74.74.55,1.23-.14.37-.5.61-.89.61ZM258.12,117.34c.23.09.5-.03.59-.26.09-.23-.03-.49-.26-.58-.11-.04-.24-.04-.35,0-.11.05-.2.14-.24.25-.09.23.03.5.26.58ZM259.45,113.43s-.1,0-.15-.01c-.25-.04-.47-.17-.62-.38-.15-.21-.21-.46-.17-.71.08-.52.56-.87,1.09-.8.25.04.47.17.62.38.15.21.21.46.17.71-.07.47-.47.81-.94.81ZM259.45,112.02c-.22,0-.41.16-.45.38-.02.12.01.24.08.34.07.1.18.16.3.18,0,0,0,0,0,0,.24.04.47-.14.51-.38.02-.12-.01-.24-.08-.34-.07-.1-.18-.16-.3-.18-.02,0-.05,0-.07,0ZM259.72,108.84c-.56,0-.97-.39-1.01-.89h0c-.03-.53.37-.98.89-1.01.25-.02.5.07.69.24.19.17.3.4.32.66.03.52-.37.98-.89,1.01h0ZM259.21,107.91c.02.24.21.42.45.42.28-.01.47-.23.45-.48,0-.12-.06-.23-.15-.31-.09-.08-.21-.12-.33-.11-.25.02-.44.23-.43.48ZM258.91,104.31c-.43,0-.8-.29-.92-.7t0,0c-.14-.51.16-1.03.66-1.17.25-.07.5-.04.73.09.22.13.38.33.45.58.07.24.04.5-.09.72-.13.22-.33.38-.58.45-.08.02-.16.04-.26.04ZM258.47,103.48c.06.24.35.37.55.31.12-.03.22-.11.28-.21.06-.1.07-.23.04-.34-.03-.12-.11-.21-.21-.27-.11-.06-.23-.08-.34-.04-.24.07-.38.32-.31.56h0ZM257.22,100.04c-.36,0-.68-.2-.85-.51-.24-.46-.06-1.04.4-1.28.46-.24,1.04-.06,1.28.4.24.46.06,1.04-.4,1.29-.14.07-.29.11-.44.11ZM257.22,98.63c-.07,0-.14.02-.21.05-.22.12-.31.39-.19.61t0,0c.11.21.38.31.61.19.22-.11.3-.39.19-.61-.08-.15-.24-.24-.4-.24Z"/>
    <path class="cls-1" d="M434.86,113.77c-.39,0-.7-.33-.69-.71,0-.39.33-.7.71-.69.39,0,.7.33.69.71,0,.38-.32.69-.7.69,0,0,0,0-.01,0M429.55,113.74c-.09-.38.14-.76.52-.85.38-.09.76.14.85.52.09.38-.14.76-.52.85-.06.01-.11.02-.16.02-.32,0-.61-.22-.68-.54M439.3,114.41c-.37-.1-.59-.49-.49-.86.1-.38.49-.59.86-.49.38.1.6.49.49.86-.08.31-.37.52-.68.52-.06,0-.12,0-.18-.03M425.26,115.56c-.18-.34-.05-.77.29-.95h0c.34-.18.77-.05.95.29.18.34.05.77-.29.95-.1.06-.22.08-.33.08-.25,0-.5-.14-.62-.37M443.45,116.12c-.34-.19-.46-.62-.26-.96.19-.34.62-.46.96-.26.34.19.46.62.26.96-.13.23-.37.36-.61.36-.12,0-.24-.03-.35-.09M421.54,118.37c-.26-.29-.24-.73.05-.99.29-.26.73-.24.99.05.26.29.24.73-.05.99-.14.12-.3.18-.47.18-.19,0-.38-.08-.52-.23M447.04,118.81c-.28-.27-.29-.71-.02-.99.27-.28.71-.29.99-.02.28.27.29.71.02.99-.14.14-.32.21-.51.21s-.35-.07-.49-.2M418.64,122.03c-.32-.21-.41-.65-.2-.97.21-.32.65-.41.97-.2.32.21.41.65.2.97-.14.2-.36.32-.59.32-.13,0-.27-.04-.38-.12M449.84,122.31c-.2-.33-.1-.76.23-.97.33-.2.76-.1.97.23.2.33.1.76-.23.97-.11.07-.24.1-.37.1-.23,0-.47-.12-.6-.33M451.7,126.39c-.12-.37.09-.76.46-.88.37-.12.76.09.88.46.11.37-.09.76-.46.88-.07.02-.14.03-.21.03-.3,0-.58-.19-.67-.49M452.48,130.81c-.02-.39.28-.72.67-.73.39-.02.72.28.74.67.02.39-.28.72-.67.74h-.03c-.37,0-.68-.29-.7-.67M452.68,136.11c-.38-.08-.63-.45-.55-.83.08-.38.45-.62.83-.55.38.08.63.45.55.83-.07.33-.36.56-.69.56-.05,0-.09,0-.14-.01M451.02,140.47c-.35-.17-.5-.59-.33-.94.17-.35.59-.49.94-.33.35.17.5.59.33.94-.12.25-.37.4-.63.4-.1,0-.21-.02-.31-.07M448.33,144.28c-.3-.25-.33-.69-.08-.99.25-.3.7-.33.99-.08.3.25.33.69.08.99-.14.16-.34.25-.53.25-.16,0-.32-.05-.46-.17M423.06,147.22c-.31-.23-.38-.67-.15-.98.23-.31.67-.38.98-.15.31.23.38.67.15.98-.14.19-.35.28-.56.28-.15,0-.29-.04-.42-.14M444.77,147.3c-.22-.32-.15-.76.17-.98.32-.22.76-.15.98.17.23.32.15.76-.17.98h0c-.12.09-.26.13-.41.13-.22,0-.44-.1-.57-.3M427.28,149.59c-.36-.15-.53-.56-.39-.92.15-.36.56-.53.92-.38.36.15.53.56.38.92-.11.27-.37.44-.65.44-.09,0-.18-.02-.26-.05M440.58,149.34c-.14-.36.04-.77.41-.91.36-.14.77.04.91.4.14.36-.04.77-.4.91-.08.03-.17.05-.25.05-.28,0-.55-.17-.66-.45M431.95,150.84c-.38-.05-.65-.41-.6-.79.05-.38.41-.65.79-.6.38.05.65.41.6.79-.05.35-.35.61-.7.61-.03,0-.06,0-.1,0M436.01,150.28c-.04-.38.23-.73.62-.78.38-.04.73.23.78.62.04.38-.23.73-.62.78-.03,0-.05,0-.08,0-.35,0-.66-.26-.7-.62"/>
    <path class="cls-1" d="M436.71,151.15c-.48,0-.89-.36-.94-.84h0c-.03-.25.04-.5.2-.7.16-.2.38-.32.64-.35.26-.03.5.04.7.2.2.16.33.38.35.64.03.25-.04.5-.2.7-.16.2-.38.33-.64.35-.04,0-.07,0-.11,0ZM436.26,150.25c.03.23.22.4.45.4.17-.02.28-.08.36-.17s.11-.21.1-.33c-.03-.25-.25-.42-.5-.4-.12.01-.23.07-.3.17-.08.09-.11.21-.1.33h0ZM432.05,151.1s-.09,0-.13,0c0,0,0,0,0,0-.25-.03-.47-.17-.63-.37-.15-.2-.22-.45-.18-.71.07-.52.56-.88,1.07-.81.52.07.88.55.82,1.07-.06.47-.47.82-.94.82ZM431.98,150.59c.27.03.48-.14.51-.39.03-.25-.14-.48-.39-.51-.25-.03-.48.14-.51.39-.02.12.01.24.09.33.07.1.18.16.3.17ZM441.23,150.04c-.39,0-.75-.25-.89-.61h0c-.19-.49.06-1.04.55-1.23.24-.09.5-.08.73.02.23.1.41.29.5.53.09.24.09.49-.02.73-.1.23-.29.41-.53.5-.1.04-.22.06-.34.06ZM440.81,149.25c.09.23.38.34.58.26.12-.04.21-.13.25-.24.05-.11.05-.23,0-.34-.04-.11-.13-.2-.24-.25-.11-.05-.23-.05-.34,0-.23.09-.35.35-.26.58h0ZM427.54,149.89c-.12,0-.24-.02-.36-.07,0,0,0,0,0,0-.48-.2-.72-.75-.52-1.24.2-.49.76-.72,1.24-.52.24.1.42.28.52.51.1.23.1.49,0,.73-.14.36-.49.59-.88.59ZM427.37,149.36c.25.1.5-.02.59-.25.05-.11.05-.24,0-.35-.05-.11-.13-.2-.25-.24-.24-.09-.5.02-.59.25-.09.23.02.49.25.59ZM445.34,147.84c-.31,0-.6-.15-.78-.4h0c-.15-.21-.2-.46-.16-.71.04-.25.18-.47.39-.62.43-.3,1.02-.2,1.33.23.15.21.21.46.16.71-.04.25-.18.47-.39.62,0,0-.02.01-.03.02-.16.1-.34.16-.52.16ZM445.34,146.44c-.09,0-.18.03-.26.08-.1.07-.16.17-.18.29-.02.12,0,.24.08.34h0c.14.2.43.25.63.11,0,0,.01,0,.02-.01.09-.07.15-.17.17-.28.02-.12,0-.24-.08-.34-.09-.12-.23-.19-.37-.19ZM423.48,147.61c-.21,0-.4-.06-.57-.19-.42-.31-.51-.91-.2-1.33.32-.42.91-.51,1.33-.2.42.31.51.91.2,1.33-.18.24-.46.38-.77.38ZM423.48,146.2c-.14,0-.28.06-.37.18-.15.2-.1.48.1.63,0,0,0,0,0,0,.1.07.2.09.27.09.15,0,.28-.07.36-.18.15-.2.11-.48-.09-.63-.08-.06-.17-.09-.27-.09ZM448.78,144.7c-.23,0-.44-.08-.62-.23h0c-.4-.34-.45-.94-.11-1.34.17-.2.4-.31.65-.33.25-.02.5.06.69.22.4.34.45.94.11,1.34-.18.21-.45.34-.73.34ZM448.49,144.09c.18.15.48.13.64-.05.16-.19.14-.48-.05-.64-.09-.08-.21-.11-.33-.11-.12,0-.23.07-.31.16-.16.19-.14.48.05.64ZM451.33,140.79c-.14,0-.28-.03-.41-.09,0,0,0,0,0,0-.47-.23-.67-.8-.44-1.27.11-.23.3-.4.54-.48.24-.08.5-.07.73.04.23.11.4.3.48.55.08.24.07.5-.04.73-.16.33-.49.54-.86.54ZM451.13,140.25c.22.1.5,0,.6-.21.05-.11.06-.23.02-.35-.04-.11-.12-.21-.23-.26-.11-.05-.23-.06-.34-.02-.11.04-.21.12-.26.23-.11.22-.01.5.21.61ZM452.82,136.38c-.06,0-.13,0-.19-.02h0c-.25-.05-.46-.19-.6-.41-.14-.21-.19-.47-.14-.72.05-.25.19-.46.41-.6.21-.14.47-.19.72-.14.25.05.46.2.6.41s.19.47.14.72c-.09.44-.48.76-.93.76ZM452.73,135.87c.24.05.49-.11.53-.35.02-.12,0-.24-.07-.34-.07-.1-.17-.17-.29-.19-.12-.02-.24,0-.34.07-.1.07-.17.17-.19.28-.02.12,0,.24.07.34.07.1.17.17.29.19h0ZM453.23,131.73c-.56,0-.97-.4-1-.91-.01-.25.07-.5.24-.69.17-.19.41-.3.66-.31.25-.01.5.07.69.25.19.17.3.41.31.66.02.52-.38.97-.9,1h0ZM453.18,130.32s-.02,0-.02,0c-.12,0-.23.06-.31.15-.08.09-.12.2-.12.32h0c.01.24.21.43.45.43.27-.01.46-.23.45-.48,0-.12-.06-.23-.15-.31-.08-.08-.19-.12-.3-.12ZM452.37,127.14c-.41,0-.79-.28-.91-.67h0c-.16-.5.12-1.04.63-1.19.24-.08.5-.05.73.07.23.12.39.32.47.56.15.5-.13,1.03-.62,1.19-.1.03-.2.04-.29.04ZM452.37,125.73s-.09,0-.13.02c-.24.07-.37.33-.3.57,0,0,0,0,0,0,.07.23.29.38.57.3.23-.07.36-.33.29-.56-.04-.12-.11-.21-.22-.27-.07-.03-.14-.05-.21-.05ZM450.44,122.89c-.33,0-.64-.17-.81-.45-.13-.22-.18-.47-.12-.72.06-.25.21-.46.43-.59.44-.27,1.03-.13,1.31.31.27.45.13,1.04-.31,1.31-.15.09-.32.14-.5.14ZM450.44,121.49c-.08,0-.16.02-.24.07-.1.06-.17.16-.2.28-.03.12,0,.24.05.34,0,0,0,0,0,0,.13.21.43.27.62.15.21-.13.28-.41.15-.63-.08-.14-.23-.21-.39-.21ZM419.02,122.39c-.19,0-.37-.05-.52-.16,0,0,0,0,0,0-.21-.14-.36-.36-.41-.61-.05-.25,0-.5.14-.71.14-.21.35-.36.6-.41.25-.05.5,0,.71.14.21.14.36.35.41.6.05.25,0,.5-.14.72-.18.27-.48.43-.8.43ZM418.78,121.82c.21.13.49.07.63-.13.07-.1.09-.22.06-.34-.02-.12-.09-.22-.19-.29-.1-.07-.22-.09-.34-.07-.12.02-.22.09-.29.19-.07.1-.09.22-.07.34.02.12.09.22.2.29h0ZM447.52,119.26c-.25,0-.48-.09-.66-.27h0c-.38-.37-.39-.97-.02-1.35.18-.18.42-.29.67-.29,0,0,0,0,.01,0,.25,0,.48.1.66.27.18.18.29.41.29.67s-.09.5-.27.68c-.18.19-.43.29-.68.29ZM447.21,118.63c.17.17.47.16.64-.01.08-.09.13-.2.13-.32,0-.12-.05-.23-.14-.32-.09-.08-.2-.13-.32-.13-.12,0-.23.05-.32.14-.17.18-.17.47,0,.64ZM422.06,118.85c-.27,0-.53-.11-.71-.31h0c-.35-.39-.32-.99.07-1.34.19-.17.44-.25.69-.25.25.01.49.12.66.31.35.39.32.99-.07,1.34-.18.16-.41.25-.64.25ZM421.72,118.21c.16.18.46.19.64.03.18-.17.2-.45.03-.64-.08-.09-.19-.14-.31-.15-.13-.01-.24.04-.33.12-.18.17-.2.45-.03.64h0ZM443.79,116.46c-.17,0-.33-.04-.47-.12h0c-.46-.26-.62-.84-.36-1.3.26-.46.84-.62,1.3-.36.22.12.38.33.45.57.07.25.04.5-.09.72-.17.3-.49.48-.83.48ZM443.57,115.9c.2.11.5.04.62-.17.06-.1.08-.23.04-.34-.03-.12-.11-.21-.21-.27-.22-.13-.49-.05-.62.17-.12.22-.05.49.17.62h0ZM425.88,116.18c-.35,0-.68-.19-.84-.51-.12-.22-.14-.48-.07-.72.07-.24.24-.44.47-.56.47-.24,1.04-.07,1.29.39.25.47.07,1.04-.39,1.29-.13.07-.29.11-.45.11ZM425.88,114.78c-.07,0-.14.02-.21.05-.11.06-.19.15-.22.27-.04.12-.02.24.03.34,0,0,0,0,0,0,.11.21.4.3.61.19.22-.12.31-.39.19-.61-.08-.15-.24-.24-.4-.24ZM439.48,114.68c-.08,0-.17-.01-.25-.03h0c-.25-.07-.45-.23-.58-.45-.13-.22-.16-.48-.09-.72.07-.25.22-.45.45-.58.22-.13.48-.16.72-.09.25.07.45.22.58.45.13.22.16.48.09.72-.11.41-.49.7-.92.7ZM439.48,113.28c-.08,0-.15.02-.22.06-.1.06-.18.16-.21.27s-.02.24.04.34c.06.1.16.18.27.21h0c.24.07.49-.08.55-.32.03-.12.02-.24-.04-.34-.06-.1-.16-.18-.27-.21-.04-.01-.08-.02-.12-.02ZM430.24,114.53c-.44,0-.82-.3-.92-.73-.06-.25-.02-.5.11-.72.13-.22.34-.37.59-.43.5-.12,1.02.19,1.15.7.06.25.02.51-.12.72-.13.22-.34.37-.59.42-.07.02-.15.03-.22.03ZM430.24,113.13s-.07,0-.1.01c-.12.03-.22.1-.28.2-.06.1-.08.22-.05.34h0c.06.24.3.39.54.33.12-.03.22-.1.28-.2.06-.1.08-.23.06-.34-.05-.21-.24-.35-.44-.35ZM434.87,114.02s-.02,0-.03,0c-.52-.02-.93-.45-.92-.97,0-.25.11-.49.29-.67.18-.18.41-.28.68-.27.53.01.95.45.94.97-.01.52-.44.94-.95.94ZM434.87,112.62c-.12,0-.23.04-.31.13-.09.08-.14.2-.14.32,0,.25.2.46.44.46,0,0,.01,0,.02,0,.24,0,.43-.2.44-.45,0-.25-.2-.46-.45-.46h0Z"/>
    <path class="cls-1" d="M199.57,321.62c-.27.38-.74.57-1.43.57h-.46v.64h2.01v6.29h.83v-8.52h-.73c0,.43-.08.77-.23,1.02"/>
    <path class="cls-1" d="M199.3,214.96c.38-.27.76-.53,1.14-.78.38-.25.76-.52,1.14-.78.8-.66,1.2-1.37,1.2-2.11,0-.69-.26-1.22-.78-1.61-.53-.4-1.17-.59-1.94-.59-.37,0-.75.06-1.16.18-.41.12-.87.31-1.4.58v.94c.52-.37,1.03-.64,1.53-.79.33-.09.67-.14,1.03-.14.24,0,.47.03.67.09.2.06.39.16.57.28.38.27.57.64.57,1.11,0,.59-.41,1.19-1.24,1.79-.39.28-.77.56-1.15.83-.38.27-.76.55-1.15.82-.82.77-1.23,1.64-1.23,2.6v.36h5.87v-.76h-5.07c.09-.71.56-1.38,1.42-2.02"/>
    <path class="cls-1" d="M235.34,213.33c-.41.23-.88.35-1.41.35s-1-.17-1.35-.51c-.34-.35-.51-.79-.51-1.31s.19-1,.57-1.39c.37-.38.86-.57,1.47-.57.53,0,1.02.19,1.47.58.49.43.8,1.03.94,1.8-.38.47-.77.82-1.18,1.06M232.19,217.56c.13.06.25.11.37.15.43.15.84.23,1.21.23,1,0,1.85-.41,2.57-1.23.77-.88,1.15-2.04,1.15-3.47,0-1.35-.37-2.4-1.12-3.16-.62-.63-1.37-.95-2.25-.95-.81,0-1.5.25-2.06.74-.59.51-.88,1.19-.88,2.04,0,.8.27,1.43.8,1.88.5.43,1.13.65,1.88.65.61,0,1.19-.16,1.73-.49.3-.18.62-.44.98-.8,0,.51-.04.94-.11,1.3-.11.52-.32,1-.61,1.44-.16.25-.34.47-.54.65-.2.18-.42.32-.66.43-.3.14-.61.21-.94.21-.37,0-.76-.1-1.16-.29-.12-.06-.25-.13-.37-.22-.13-.08-.26-.18-.41-.29v.98c.14.07.27.13.39.19"/>
    <path class="cls-1" d="M303.61,271.85c-.34-.64-.51-1.49-.51-2.56s.17-1.94.51-2.58c.39-.72.96-1.08,1.72-1.08.72,0,1.29.34,1.69,1.02.36.65.54,1.52.54,2.6,0,1.03-.16,1.86-.47,2.51-.4.77-1.01,1.15-1.83,1.15-.71,0-1.27-.35-1.65-1.06M307.56,272.49c.58-.79.88-1.87.88-3.23s-.28-2.37-.85-3.17c-.54-.81-1.29-1.22-2.25-1.22s-1.65.38-2.23,1.14c-.61.79-.91,1.88-.91,3.27s.28,2.46.84,3.23c.57.78,1.34,1.18,2.31,1.18.89,0,1.63-.4,2.2-1.19M299.02,266.02c-.27.38-.74.57-1.43.57h-.46v.64h2.01v6.29h.83v-8.52h-.73c0,.43-.08.77-.23,1.02"/>
    <path class="cls-1" d="M345.08,136.54c-.27.38-.74.57-1.43.57h-.46v.64h2.01v6.29h.83v-8.52h-.73c0,.43-.08.77-.23,1.02M338.77,136.54c-.27.38-.74.57-1.43.57h-.46v.64h2.01v6.29h.83v-8.52h-.73c0,.43-.08.77-.23,1.02"/>
    <path class="cls-1" d="M433.71,135.93c.17.08.32.13.44.17.5.18,1,.27,1.5.27.89,0,1.64-.27,2.24-.8.59-.53.89-1.17.89-1.91,0-.64-.21-1.13-.63-1.48-.16-.13-.35-.24-.56-.33-.21-.09-.46-.15-.73-.19.4-.14.71-.33.94-.55.38-.37.57-.83.57-1.39,0-.68-.25-1.21-.75-1.59-.49-.39-1.12-.58-1.86-.58-.47,0-.93.07-1.37.22-.2.06-.4.14-.61.23-.21.09-.44.2-.68.33v.98c.43-.32.84-.56,1.23-.73.22-.09.44-.16.67-.2.22-.04.45-.06.68-.06.57,0,1.03.15,1.38.46.33.28.49.63.49,1.05,0,.51-.22.9-.65,1.17-.43.27-1.03.41-1.79.41h-1.19v.71h1.73c.66,0,1.18.12,1.56.37.45.27.67.68.67,1.21s-.21.96-.64,1.35c-.4.38-.93.57-1.59.57-.46,0-.89-.08-1.31-.25-.42-.16-.83-.39-1.22-.69v.96c.22.12.42.22.59.3M429.77,128.72c-.27.38-.74.57-1.43.57h-.46v.64h2.01v6.29h.83v-8.52h-.73c0,.43-.08.77-.23,1.02"/>
    <path class="cls-1" d="M598.15,39.99h4.78l-3.64,7.76h.89l3.69-7.87v-.65h-5.72v.75ZM594.73,40.25c-.27.38-.74.57-1.43.57h-.46v.64h2.01v6.29h.83v-8.52h-.73c0,.43-.08.77-.23,1.02"/>
    <path class="cls-1" d="M496.96,43.92c.26.1.47.18.63.27.54.3.81.7.81,1.17s-.22.89-.67,1.25c-.45.35-1.05.53-1.79.53-.69,0-1.25-.15-1.67-.45-.43-.3-.65-.68-.65-1.14s.27-.87.82-1.22c.18-.11.39-.22.66-.33s.58-.23.94-.35c.36.09.67.18.93.28M495.2,42.56c-.24-.11-.43-.22-.57-.33-.3-.27-.46-.59-.46-.96,0-.43.17-.76.51-1.02.33-.27.78-.4,1.34-.4s.99.13,1.32.4c.35.25.53.57.53.96,0,.41-.21.77-.64,1.07-.12.08-.28.17-.46.27-.19.1-.41.19-.67.29-.36-.08-.66-.18-.9-.28M498.36,42.25c.27-.35.41-.74.41-1.17,0-.62-.27-1.12-.82-1.48-.5-.34-1.13-.51-1.88-.51-.81,0-1.47.21-2,.62-.52.4-.79.94-.79,1.62,0,.59.22,1.08.67,1.46.11.1.25.2.42.3.17.1.38.2.62.3-.29.08-.55.17-.78.26-.23.09-.44.2-.61.32-.58.39-.87.92-.87,1.6,0,.64.26,1.17.78,1.61.58.49,1.37.73,2.39.73s1.77-.25,2.42-.74c.65-.5.98-1.11.98-1.85,0-.66-.29-1.2-.87-1.61-.14-.11-.32-.21-.54-.31-.22-.1-.49-.2-.8-.29.58-.22,1-.5,1.27-.85M489.45,40.25c-.27.38-.74.57-1.43.57h-.46v.64h2.01v6.29h.83v-8.52h-.73c0,.43-.08.77-.23,1.02"/>
    <path class="cls-1" d="M396.38,69.24c-.41.23-.88.35-1.41.35s-1.01-.17-1.35-.51c-.34-.35-.51-.79-.51-1.31s.19-1,.57-1.39c.37-.38.86-.57,1.47-.57.53,0,1.02.19,1.47.58.49.43.8,1.03.94,1.8-.38.47-.77.82-1.18,1.06M393.23,73.47c.13.06.25.11.37.15.43.15.84.23,1.21.23,1,0,1.85-.41,2.57-1.23.77-.88,1.15-2.04,1.15-3.47,0-1.35-.37-2.4-1.12-3.16-.62-.63-1.37-.95-2.25-.95-.81,0-1.5.25-2.06.74-.59.51-.88,1.19-.88,2.04,0,.8.27,1.43.8,1.88.5.43,1.13.65,1.88.65.61,0,1.19-.16,1.74-.49.3-.17.62-.44.98-.8,0,.51-.04.94-.11,1.3-.11.52-.32,1-.61,1.44-.16.25-.34.47-.54.65-.2.18-.42.32-.66.43-.3.14-.61.2-.94.2-.37,0-.76-.1-1.17-.28-.12-.06-.25-.13-.37-.22-.13-.08-.26-.18-.41-.29v.98c.14.07.27.13.39.19M388.82,66.15c-.27.38-.74.57-1.43.57h-.46v.64h2.01v6.29h.83v-8.52h-.73c0,.43-.08.77-.23,1.02"/>
    <path class="cls-1" d="M318.31,44.41c-.34-.64-.51-1.49-.51-2.56s.17-1.94.51-2.58c.39-.72.96-1.08,1.72-1.08.72,0,1.29.34,1.69,1.02.36.65.54,1.52.54,2.6,0,1.03-.16,1.86-.47,2.51-.4.77-1.01,1.15-1.83,1.15-.71,0-1.27-.35-1.65-1.06M322.26,45.05c.59-.79.88-1.87.88-3.23s-.28-2.37-.85-3.17c-.54-.81-1.29-1.22-2.25-1.22s-1.65.38-2.23,1.14c-.61.79-.91,1.88-.91,3.27s.28,2.46.84,3.23c.57.79,1.34,1.18,2.31,1.18.89,0,1.63-.4,2.2-1.19M313.15,43.3c.38-.27.76-.53,1.14-.78s.76-.52,1.14-.78c.8-.66,1.2-1.37,1.2-2.11,0-.69-.26-1.22-.78-1.61-.53-.4-1.17-.59-1.94-.59-.37,0-.75.06-1.16.18-.41.12-.87.31-1.4.58v.94c.52-.37,1.03-.64,1.53-.79.33-.09.67-.14,1.03-.14.24,0,.47.03.67.09.2.06.39.16.57.28.38.27.57.64.57,1.11,0,.59-.42,1.19-1.25,1.79-.39.28-.77.56-1.15.83-.38.27-.76.55-1.15.82-.82.77-1.23,1.64-1.23,2.6v.36h5.87v-.76h-5.07c.09-.71.56-1.38,1.42-2.02"/>
    <path class="cls-1" d="M240.58,96.42c-.27.38-.74.57-1.43.57h-.46v.64h2.01v6.29h.83v-8.52h-.73c0,.43-.08.77-.23,1.02M233.69,101.14c.38-.27.76-.53,1.14-.78s.76-.52,1.14-.78c.8-.66,1.2-1.37,1.2-2.11,0-.69-.26-1.22-.78-1.61-.53-.4-1.17-.59-1.94-.59-.37,0-.75.06-1.16.18-.41.12-.87.31-1.4.58v.94c.52-.37,1.03-.64,1.53-.79.33-.09.67-.14,1.03-.14.24,0,.47.03.67.09.2.06.39.16.57.29.38.27.57.64.57,1.11,0,.59-.42,1.19-1.25,1.79-.39.28-.77.56-1.15.83-.38.27-.76.55-1.15.82-.82.77-1.23,1.64-1.23,2.6v.36h5.87v-.76h-5.07c.09-.71.56-1.38,1.42-2.02"/>
    <path class="cls-1" d="M400.67,223.22c.38-.27.76-.53,1.14-.78.38-.25.76-.52,1.14-.78.8-.66,1.2-1.37,1.2-2.11,0-.69-.26-1.22-.78-1.61-.53-.4-1.17-.59-1.94-.59-.37,0-.75.06-1.16.18-.41.12-.87.31-1.4.58v.94c.52-.37,1.03-.64,1.53-.79.33-.09.67-.14,1.03-.14.24,0,.47.03.67.09.2.06.4.16.57.28.38.27.57.64.57,1.11,0,.59-.42,1.19-1.25,1.79-.39.28-.77.56-1.15.83-.38.28-.77.55-1.15.82-.82.77-1.23,1.64-1.23,2.6v.37h5.87v-.76h-5.07c.09-.71.56-1.38,1.42-2.02M394.92,218.51c-.27.38-.74.57-1.43.57h-.46v.64h2.01v6.29h.83v-8.52h-.73c0,.43-.08.77-.23,1.02"/>
    <path class="cls-1" d="M503.53,112.95l3.25-4.2v4.2h-3.25ZM502.66,112.95v.76h4.12v2.47h.83v-2.47h1.55v-.76h-1.55v-5.29h-.83l-4.12,5.29ZM499.67,108.68c-.27.38-.74.57-1.43.57h-.46v.64h2.01v6.29h.83v-8.52h-.73c0,.43-.08.77-.23,1.02"/>
    <path class="cls-1" d="M145.37,101.09c.38-.27.76-.53,1.14-.78.38-.25.76-.52,1.14-.78.8-.66,1.2-1.37,1.2-2.11,0-.69-.26-1.22-.78-1.61-.53-.4-1.17-.59-1.94-.59-.37,0-.75.06-1.16.18-.41.12-.87.31-1.4.58v.94c.52-.37,1.03-.64,1.53-.79.33-.09.67-.14,1.03-.14.24,0,.47.03.67.09.2.06.4.16.57.29.38.27.57.64.57,1.11,0,.59-.42,1.19-1.25,1.79-.39.28-.77.56-1.15.83-.38.27-.77.55-1.15.82-.82.77-1.23,1.64-1.23,2.6v.36h5.87v-.76h-5.07c.09-.71.56-1.38,1.42-2.02M139.05,101.09c.38-.27.76-.53,1.14-.78.38-.25.76-.52,1.14-.78.8-.66,1.2-1.37,1.2-2.11,0-.69-.26-1.22-.78-1.61-.53-.4-1.17-.59-1.94-.59-.37,0-.75.06-1.16.18-.41.12-.87.31-1.4.58v.94c.52-.37,1.03-.64,1.53-.79.33-.09.67-.14,1.03-.14.24,0,.47.03.67.09.2.06.39.16.57.29.38.27.57.64.57,1.11,0,.59-.42,1.19-1.25,1.79-.39.28-.77.56-1.15.83-.38.27-.76.55-1.15.82-.82.77-1.23,1.64-1.23,2.6v.36h5.87v-.76h-5.07c.09-.71.56-1.38,1.42-2.02"/>
    <path class="cls-1" d="M538.56,112.68c.14-.14.29-.26.45-.38.53-.39,1.1-.58,1.7-.58.5,0,.94.17,1.3.51.37.35.56.8.56,1.35,0,.58-.19,1.05-.58,1.43-.37.37-.84.56-1.42.56-.64,0-1.19-.25-1.65-.75-.41-.46-.67-1.01-.78-1.67.13-.18.27-.33.41-.47M542.37,107.83c-.14-.06-.26-.1-.36-.14-.34-.11-.71-.17-1.11-.17-1.06,0-1.94.43-2.65,1.29-.72.86-1.07,1.98-1.07,3.36s.37,2.45,1.12,3.21c.62.64,1.37.96,2.23.96.81,0,1.51-.26,2.08-.79.57-.53.86-1.21.86-2.02s-.27-1.44-.81-1.92c-.5-.43-1.13-.65-1.87-.65-.61,0-1.18.16-1.72.49-.31.2-.64.48-.99.83,0-1.14.23-2.06.69-2.76.33-.49.76-.85,1.29-1.07.14-.06.28-.1.42-.13.14-.02.28-.03.42-.03.2,0,.4.02.59.06.2.04.4.11.61.21.13.06.26.13.39.2.13.07.26.16.4.27v-.97c-.18-.09-.35-.16-.49-.22M533.89,108.68c-.27.38-.74.57-1.43.57h-.46v.64h2.01v6.29h.83v-8.52h-.73c0,.43-.08.77-.23,1.02"/>
    <path class="cls-1" d="M177.77,103.58c.17.08.32.13.44.17.5.18,1,.27,1.5.27.89,0,1.64-.27,2.24-.8.59-.53.89-1.17.89-1.91,0-.64-.21-1.13-.63-1.48-.16-.13-.35-.24-.56-.33-.21-.09-.46-.15-.73-.19.4-.14.71-.33.94-.55.38-.36.57-.83.57-1.39,0-.68-.25-1.21-.75-1.59-.49-.39-1.12-.58-1.86-.58-.47,0-.93.07-1.37.22-.2.06-.4.14-.61.23-.21.09-.43.2-.68.33v.98c.43-.32.84-.56,1.23-.73.22-.09.44-.16.67-.2.22-.04.45-.06.68-.06.57,0,1.03.15,1.38.46.33.28.49.63.49,1.05,0,.51-.22.9-.65,1.17-.43.27-1.03.41-1.79.41h-1.19v.71h1.73c.66,0,1.18.12,1.56.37.45.27.67.68.67,1.21s-.21.96-.64,1.35c-.4.38-.93.57-1.59.57-.46,0-.89-.08-1.31-.25s-.83-.39-1.22-.69v.96c.22.12.42.22.59.3M173.27,101.09c.38-.27.76-.53,1.14-.78.38-.25.76-.52,1.14-.78.8-.66,1.2-1.37,1.2-2.11,0-.69-.26-1.22-.78-1.61-.53-.4-1.17-.59-1.94-.59-.37,0-.75.06-1.16.18-.41.12-.87.31-1.4.58v.94c.52-.37,1.03-.64,1.53-.79.33-.09.67-.14,1.03-.14.24,0,.47.03.67.09.2.06.39.16.57.29.38.27.57.64.57,1.11,0,.59-.42,1.19-1.25,1.79-.39.28-.77.56-1.15.83-.38.27-.76.55-1.15.82-.82.77-1.23,1.64-1.23,2.6v.36h5.87v-.76h-5.07c.09-.71.56-1.38,1.42-2.02"/>
  </g>
  <rect class="cls-1" x="376.05" y="145.55" width="1" height="68.5" transform="translate(-39.08 216.85) rotate(-30.62)"/>
  <polygon class="cls-1" points="394.3 209.83 388.47 208.1 388.75 207.14 393.55 208.56 394.62 203.67 395.59 203.89 394.3 209.83"/>
  <rect class="cls-1" x="267.1" y="212.02" width="1" height="71.14" transform="translate(-83.73 150.24) rotate(-27.29)"/>
  <rect class="cls-1" x="92.05" y="362.4" width="71.13" height="1" transform="translate(-174.08 124.23) rotate(-32.28)"/>
  <polygon class="cls-1" points="284.04 279.47 278.32 277.41 278.66 276.47 283.37 278.16 284.72 273.34 285.68 273.61 284.04 279.47"/>
  <polygon class="cls-1" points="156.38 349.62 155.42 349.36 156.7 344.53 151.78 343.6 151.96 342.62 157.94 343.74 156.38 349.62"/>
  <rect class="cls-1" x="148.96" y="279.87" width="108.67" height="1" transform="translate(-136.12 349.17) rotate(-65.51)"/>
  <polygon class="cls-1" points="226.92 236.74 225.34 231.99 220.72 233.91 220.34 232.99 225.95 230.65 227.87 236.42 226.92 236.74"/>
  <rect class="cls-1" x="384.34" y="180.66" width="59.8" height="1" transform="translate(75.44 480.55) rotate(-65.09)"/>
  <polygon class="cls-1" points="427.94 159.65 426.4 154.89 421.77 156.78 421.39 155.86 427.01 153.56 428.9 159.34 427.94 159.65"/>
  <rect class="cls-1" x="445.98" y="131.62" width="66.6" height="1" transform="translate(-16.78 99.12) rotate(-11.61)"/>
  <polygon class="cls-1" points="508.93 130.26 508.12 129.67 511.08 125.63 506.83 122.98 507.36 122.13 512.52 125.35 508.93 130.26"/>
  <rect class="cls-1" x="516" y="80.17" width="80.79" height="1" transform="translate(71.7 365.55) rotate(-38.69)"/>
  <polygon class="cls-1" points="587.58 61.05 586.59 60.91 587.32 55.96 582.33 55.59 582.4 54.59 588.47 55.04 587.58 61.05"/>
  <rect class="cls-1" x="502.22" y="50.79" width="77.15" height="1" transform="translate(-2.38 58.39) rotate(-6.17)"/>
  <polygon class="cls-1" points="506.75 59.15 501.88 55.51 505.87 50.92 506.62 51.58 503.34 55.36 507.35 58.35 506.75 59.15"/>
  <rect class="cls-1" x="409.03" y="58.72" width="64.83" height="1" transform="translate(-2.83 90.87) rotate(-11.72)"/>
  <polygon class="cls-1" points="413.6 69.22 408.4 66.08 411.92 61.12 412.73 61.7 409.84 65.78 414.12 68.37 413.6 69.22"/>
  <rect class="cls-1" x="351.1" y="37.91" width="1" height="37.47" transform="translate(108.96 317.34) rotate(-56.21)"/>
  <polygon class="cls-1" points="336.84 51.87 335.44 45.96 341.44 44.99 341.6 45.98 336.66 46.77 337.81 51.64 336.84 51.87"/>
  <rect class="cls-1" x="261.88" y="76.58" width="55.14" height="1" transform="translate(21.53 211.03) rotate(-41.48)"/>
  <polygon class="cls-1" points="274.48 95.85 268.4 95.7 269 89.65 270 89.75 269.51 94.72 274.51 94.85 274.48 95.85"/>
  <rect class="cls-1" x="149.28" y="113.49" width="79.44" height="1" transform="translate(-5.44 9.55) rotate(-2.85)"/>
  <polygon class="cls-1" points="153.52 119.88 148.87 115.97 153.11 111.62 153.82 112.31 150.33 115.9 154.16 119.12 153.52 119.88"/>
  <rect class="cls-1" x="67.4" y="131.9" width="80.71" height="1" transform="translate(-37.29 42.39) rotate(-19.04)"/>
  <polygon class="cls-1" points="74.63 148.25 69.07 145.79 71.92 140.43 72.81 140.9 70.45 145.31 75.03 147.34 74.63 148.25"/>
  <path class="cls-1" d="M175.81,349.78l-5.91-1.42.23-.97,4.86,1.17.81-4.94.99.16-.98,6ZM210.13,293.16l-.54-.84,4.22-2.69-2.99-4.01.8-.6,3.64,4.87-5.12,3.27Z"/>
  <path class="cls-1" d="M176.6,134.28l-.98-.18.9-4.92-4.97-.54.11-.99,6.04.65-1.09,5.98ZM128.42,104.23l-3.02-3.99-3.76,3.31-.66-.75,4.56-4.02,3.67,4.84-.8.6Z"/>
  <path class="cls-1" d="M381.59,95.28l-.84-6.02,6.07-.4.07,1-4.99.33.69,4.95-.99.14ZM415.56,76.1l-.74-.67,4.1-4.49,4.18,4.42-.73.69-3.44-3.63-3.37,3.69Z"/>
  <polygon class="cls-1" points="471.18 46.44 470.44 45.77 474.56 41.29 478.72 45.73 477.99 46.41 474.56 42.76 471.18 46.44"/>
  <polygon class="cls-1" points="534.62 72.52 533.62 72.45 533.94 67.46 528.94 67.51 528.93 66.51 535.01 66.45 534.62 72.52"/>
  <path class="cls-1" d="M377.04,224.12c-3.05-14.24,5.61-28.29,19.71-31.98,13.68-3.58,27.62,3.73,32.44,17l-.94.34c-4.64-12.78-18.08-19.82-31.25-16.37-13.58,3.55-21.92,17.09-18.98,30.81l-.98.21Z"/>
  <polygon class="cls-1" points="428.93 209.83 423.43 207.23 423.86 206.32 428.38 208.46 430.18 203.8 431.12 204.16 428.93 209.83"/>
  <polygon class="cls-1" points="377.7 224.62 372.83 220.98 373.43 220.18 377.43 223.18 380.13 218.96 380.97 219.5 377.7 224.62"/>
  <path class="cls-1" d="M312.52,77.98c-15.52,0-29.35-11.19-32.27-26.69l.98-.18c3.03,16.09,18.18,27.38,34.48,25.72,11.42-1.17,21.37-8.44,25.95-18.99l.92.4c-4.73,10.88-14.98,18.38-26.77,19.58-1.1.11-2.2.17-3.3.17Z"/>
  <polygon class="cls-1" points="278.45 56.23 277.59 55.72 280.69 50.49 285.68 53.96 285.11 54.78 281 51.93 278.45 56.23"/>
  <polygon class="cls-1" points="343.45 63.45 341.92 58.69 337.28 60.57 336.9 59.65 342.54 57.36 344.4 63.15 343.45 63.45"/>
  <polygon class="cls-1" points="217.7 124.55 216.73 124.3 218.28 118.42 224.03 120.39 223.7 121.34 218.97 119.71 217.7 124.55"/>
  <polygon class="cls-1" points="254.84 101.21 253.85 101.11 254.42 95.06 260.41 96.08 260.25 97.06 255.32 96.23 254.84 101.21"/>
  <path class="cls-1" d="M484.41,149.39c-5.67-13.67-3.72-29.61,5.1-41.61,9.85-13.4,26.46-19.69,42.31-16.01l-.23.97c-15.47-3.59-31.67,2.55-41.28,15.63-8.61,11.72-10.52,27.29-4.98,40.64l-.92.38Z"/>
  <polygon class="cls-1" points="526.79 95.51 526.27 94.66 530.55 92.07 527.66 87.99 528.48 87.41 531.99 92.37 526.79 95.51"/>
  <polygon class="cls-1" points="485.08 149.87 479.6 147.24 480.03 146.33 484.54 148.51 486.38 143.85 487.31 144.22 485.08 149.87"/>
  <path class="cls-1" d="M330.87,158.19c-4.6,0-9.18-1.66-12.76-4.9-7.75-7.02-8.35-19.05-1.32-26.8,6.49-7.16,17.29-8.32,25.12-2.68l-.58.81c-7.42-5.34-17.65-4.25-23.8,2.54-3.22,3.56-4.87,8.16-4.63,12.95.24,4.8,2.33,9.21,5.88,12.43,5.98,5.42,14.91,6.18,21.71,1.86l.54.84c-3.11,1.98-6.64,2.95-10.15,2.95Z"/>
  <polygon class="cls-1" points="336.12 125.53 335.95 124.54 340.88 123.69 339.66 118.83 340.63 118.59 342.11 124.49 336.12 125.53"/>
  <polygon class="cls-1" points="339.47 160.32 338.52 160.02 340.01 155.25 335.13 154.11 335.36 153.14 341.28 154.52 339.47 160.32"/>
  <path class="cls-1" d="M202.58,265.03h-.09c-18-.04-33.22-14.12-34.65-32.04l1-.08c1.39,17.41,16.17,31.08,33.65,31.12h.08c13.07,0,25.09-7.63,30.65-19.47l.91.42c-5.72,12.18-18.1,20.04-31.56,20.04Z"/>
  <polygon class="cls-1" points="165.52 238.11 164.72 237.51 168.36 232.64 172.95 236.63 172.29 237.39 168.52 234.1 165.52 238.11"/>
  <polygon class="cls-1" points="234.52 250.59 233.12 245.79 228.43 247.54 228.08 246.6 233.77 244.48 235.48 250.31 234.52 250.59"/>
  <g>
    <polygon class="cls-1" points="115.17 391.28 106.89 391.28 106.89 390.28 114.92 390.28 229.82 327.77 227.34 322.93 246.48 312.83 249.2 317.73 362.88 256.18 358.42 247.93 381.1 235.74 385.44 243.43 447.17 209.81 445.17 191.1 474.62 193.54 614.3 62.84 614.3 27.52 252.09 27.52 252.09 83.58 119.01 83.58 119.01 92.74 95.11 92.74 95.11 77.64 57.5 77.64 57.5 83.33 24.38 83.33 24.38 204.23 99.09 204.23 99.09 197.05 121.99 197.05 121.99 224.23 116.43 224.23 116.43 353.57 106.89 353.57 106.89 352.57 115.43 352.57 115.43 223.23 120.99 223.23 120.99 198.05 100.09 198.05 100.09 205.23 23.38 205.23 23.38 82.33 56.5 82.33 56.5 76.64 96.11 76.64 96.11 91.74 118.01 91.74 118.01 82.58 251.09 82.58 251.09 26.52 615.3 26.52 615.3 63.27 615.14 63.42 474.98 194.57 446.3 192.19 448.23 210.37 385.05 244.78 380.71 237.09 359.77 248.33 364.23 256.58 363.79 256.82 248.8 319.08 246.08 314.17 228.68 323.36 231.15 328.19 230.72 328.42 115.17 391.28"/>
    <path class="cls-1" d="M258.48,236.03c-6.74,0-13.52-1.81-19.57-5.59l.53-.85c15.9,9.94,37.1,5.9,48.27-9.19,11.87-16.05,8.48-38.77-7.57-50.65-7.77-5.75-17.32-8.13-26.89-6.7-9.57,1.43-18,6.5-23.75,14.28-5.11,6.91-7.6,15.43-7.02,23.99l-1,.07c-.6-8.8,1.96-17.55,7.21-24.65,5.91-7.99,14.58-13.2,24.41-14.67,9.83-1.47,19.64.98,27.63,6.89,16.49,12.2,19.98,35.55,7.78,52.04-7.23,9.77-18.56,15.04-30.03,15.04Z"/>
  </g>
  <polygon class="cls-1" points="240.58 235.42 238.93 229.82 244.64 228.58 244.86 229.55 240.19 230.56 241.54 235.14 240.58 235.42"/>
  <polygon class="cls-1" points="222.04 201.67 217.87 197.56 218.57 196.85 221.97 200.2 225.06 196.56 225.83 197.21 222.04 201.67"/>
  <path class="cls-1" d="M420.85,149.24l-1-.02.13-6.08,6.05.58-.1,1-4.98-.48-.11,5ZM416.94,125.95l-2.22-5.66.93-.36,1.82,4.66,4.51-2.16.43.9-5.48,2.62Z"/>
  <rect class="cls-1" x="273.47" y="211.04" width="87.31" height="1" transform="translate(4.16 429.18) rotate(-68.52)"/>
  <polygon class="cls-1" points="334.61 176.36 332.78 171.7 328.27 173.87 327.84 172.96 333.32 170.33 335.54 175.99 334.61 176.36"/>
</svg>